<svg id="Layer_3" data-name="Layer 3" xmlns="http://www.w3.org/2000/svg" viewBox="0 0 428.11 428.54"><defs><style>.cls-1{fill:#202020;}.cls-2{fill:none;stroke:#000;stroke-miterlimit:10;}</style></defs><title>coral</title><path class="cls-1" d="M669.88,282.08c0.08,0.7.3,0.3,0.2-1.63l-0.37-1.37Z" transform="translate(-243.2 -67.93)"/><path class="cls-1" d="M670.06,269c-0.33-2.27-.81-4.87-1-3.37,0.49,2.23.4,2.78,1,5.18,0.12,1.94,0,3.39-.14,3.07,0.1,0.68,0,3,.24,4.05,0.1-1.26.13-2.7,0.1-4.23,0-.77,0-1.56-0.09-2.37s-0.18-1.63-.29-2.46S670,268.86,670.06,269Z" transform="translate(-243.2 -67.93)"/><path class="cls-1" d="M581.19,108l1,0.74C581.9,108.54,581.57,108.29,581.19,108Z" transform="translate(-243.2 -67.93)"/><path class="cls-1" d="M471.51,68.74a6.59,6.59,0,0,0,1.32,0A6.13,6.13,0,0,0,471.51,68.74Z" transform="translate(-243.2 -67.93)"/><path class="cls-1" d="M451.36,68h1.19A9,9,0,0,0,451.36,68Z" transform="translate(-243.2 -67.93)"/><path class="cls-1" d="M581.19,108l-2.51-1.91A19.38,19.38,0,0,0,581.19,108Z" transform="translate(-243.2 -67.93)"/><path class="cls-1" d="M666.08,243.19c0.13,0.64.26,1.17,0.38,1.66l-0.32-1.57Z" transform="translate(-243.2 -67.93)"/><path class="cls-1" d="M619.68,142.83l0.63,0.72c0.21,0.19.42,0.36,0.62,0.52Z" transform="translate(-243.2 -67.93)"/><path class="cls-1" d="M642.79,175.35a3.11,3.11,0,0,0-1.12-1.16,10.66,10.66,0,0,1,1.15,1.61A0.49,0.49,0,0,0,642.79,175.35Z" transform="translate(-243.2 -67.93)"/><path class="cls-1" d="M665.38,234.23l0.29,1.08Z" transform="translate(-243.2 -67.93)"/><path class="cls-1" d="M599.72,122.37a1.1,1.1,0,0,0-.21-0.31A0.64,0.64,0,0,0,599.72,122.37Z" transform="translate(-243.2 -67.93)"/><path class="cls-1" d="M664.27,327.6s0,0,0,0C664.35,327.38,664.34,327.3,664.27,327.6Z" transform="translate(-243.2 -67.93)"/><path class="cls-1" d="M670.62,282.08v0.64a0.28,0.28,0,0,0,.15.14Z" transform="translate(-243.2 -67.93)"/><path class="cls-1" d="M414.61,71.76l0.16,0C415.73,71.54,415.18,71.64,414.61,71.76Z" transform="translate(-243.2 -67.93)"/><path class="cls-1" d="M247.81,327.44c-0.62-3.79,1.72,6,.69.33C248.52,328.32,246.89,322.74,247.81,327.44Z" transform="translate(-243.2 -67.93)"/><path class="cls-1" d="M665.93,242.17l-0.29-1.6C665.77,241.3,665.85,241.79,665.93,242.17Z" transform="translate(-243.2 -67.93)"/><path class="cls-1" d="M248.5,327.77h0l-0.11-.59Z" transform="translate(-243.2 -67.93)"/><path class="cls-1" d="M336.65,104.86a6.43,6.43,0,0,0,.78-0.4A3.3,3.3,0,0,0,336.65,104.86Z" transform="translate(-243.2 -67.93)"/><path class="cls-1" d="M393.71,77.68l-1.5.47C392.81,78,393.29,77.82,393.71,77.68Z" transform="translate(-243.2 -67.93)"/><path class="cls-1" d="M311.23,125.76c-0.63.57-.87,0.74-1.69,1.58l0.28-.22A14.09,14.09,0,0,1,311.23,125.76Z" transform="translate(-243.2 -67.93)"/><path class="cls-1" d="M288.19,151l0.44-.46,0.66-.86Z" transform="translate(-243.2 -67.93)"/><path class="cls-1" d="M619.08,419.1a12.12,12.12,0,0,1,1.22-1C619.81,418.34,623,414.53,619.08,419.1Z" transform="translate(-243.2 -67.93)"/><path class="cls-1" d="M666.23,243.14a3.5,3.5,0,0,1-.3-1l0.21,1.11C666.21,243.37,666.25,243.38,666.23,243.14Z" transform="translate(-243.2 -67.93)"/><path class="cls-1" d="M311.75,128.33L307.82,132Z" transform="translate(-243.2 -67.93)"/><path class="cls-1" d="M398.72,485.88l1.2,0.31A11.9,11.9,0,0,0,398.72,485.88Z" transform="translate(-243.2 -67.93)"/><path class="cls-1" d="M297,143.77c-0.7.66-1.42,1.4-2.13,2.17-0.13.18-.28,0.39-0.35,0.52Z" transform="translate(-243.2 -67.93)"/><path class="cls-1" d="M620.31,418.07h0Z" transform="translate(-243.2 -67.93)"/><path class="cls-1" d="M640.12,388.66c-2.56,4.44-.89,2.27-1.25,3.33-3.21,5.23-1.76,2.25-3,3.9-1,1.64-1.81,3.12-2.58,4.49s-1.6,2.56-2.43,3.73c-0.17.14-.51,0.58-0.2,0-0.53.87-1.22,1.91-2,3.06L627.37,409l-1.4,1.81c-1.91,2.43-3.82,5-5.18,6.9a3.46,3.46,0,0,1-.47.41c0.64-.46.87-0.43,0.87-0.22a34,34,0,0,1-3.38,3.89,10.91,10.91,0,0,0,1.31-1.77l-1.51,1.9c-1.69,1.42,2.07-2.58,1.88-2.74l-4.62,5.69c-1.59,1.81-3.15,3.49-4.43,4.76-0.77.31,5.75-6.19,2.2-2.91l2-2,1.88-2.07c-3.19,2.87,2.25-2.54-.75,0l-1.64,1.85L612.71,426l-2.22,2.41a72.74,72.74,0,0,1-5.42,5.54c-1.06,1.27.59-.18-0.47,1.1-1.83,1.86-3.15,3.11-4.19,4a30.41,30.41,0,0,1-2.56,1.89,31.69,31.69,0,0,0-5.31,4.39,29.9,29.9,0,0,1-6.17,5.42l1.23-1.45c-2.8,2.18-3.51,2.93-4.32,3.61a38.06,38.06,0,0,1-4.76,3.46c1-.89,4.48-3.34,3.58-2.76-4.11,2.55-2.65,2.15-5.68,4.31L576,458l-0.42.07-4.85,3.19c-1.65,1.08-3.3,2.25-5.07,3.27-3.51,2.08-7,4.33-10.81,6.19,0.37-.3,1.6-1.05-0.2-0.25l-3.56,1.88-1.82.94-1.88.86c-2.53,1.14-5.09,2.29-7.66,3.4L532,480.49l-1.9.7-1.91.61L524.43,483l-3.6,1.53c-0.86.29-1.65,0.34-.72,0-3.85,1-.14.23-1.95,0.87-2.17.64-2.92,0.65-1.57,0.18A148.32,148.32,0,0,1,490,491.77l1.41-.34-3.48.57c-0.95.17-1.73,0.34-2.5,0.5a37.81,37.81,0,0,1-5.71.83l1-.18c-6.23.55-12.79,1.11-19,1.16-1.55,0-3.08.09-4.58,0.09l-4.37-.15-4.1-.18c-1.31-.06-2.57-0.14-3.75-0.31a55.31,55.31,0,0,1-7-.39l-2.16-.18-1.89-.21a6.29,6.29,0,0,0-2.16,0c-3.53-.6-4.77-0.85-6.38-1.15s-3.56-.79-8.48-1.76c-2.64-.46-4-0.45-7.24-1.11v-0.32l-4.46-.7s-0.57-.21-1.12-0.46l-1.11-.51-3-.77a8.19,8.19,0,0,1,2.29.89c-2.36-.6-5.2-1.46-7.45-2.19a27.67,27.67,0,0,1-3.9-1.61l-5.48-1.72c-1.38-.4-2.7-1-3.72-1.32l-1.69-.62a33.3,33.3,0,0,1,3.53,1.13c-5.82-2-.92-0.71-6.25-2.5,0.67,0.34-.45,0-0.59,0L364,472.47l0.9,0.22-5.82-3c-1-.51-2-1-3-1.54l-3-1.69c-2-1.15-4.06-2.27-6.09-3.48l-6-3.83c2.83,1.93,2,1.82-.41.33l-0.77-.88c-1.64-.81,2.4,1.69-0.87-0.12-2.92-2.07-1.76-1.68,0-.58l-3.61-2.42c-0.15-.23.71,0.32,1,0.37-1.56-.89-6-4.54-8.13-5.93l-0.13-.23-5-3.89c-1.45-1.18-2.71-2.29-4-3.34l-3.69-3.14c-1.25-1.08-2.47-2.3-3.9-3.63-0.3.1-2.46-2-4.31-3.49l-6.12-6.68c-2.11-2.36-4.18-5-6.47-7.54-0.83-.88-1.29-1.41-1.55-1.7a0.85,0.85,0,0,0-.38-0.33c-0.06,0,.08.31-0.66-0.49,0-.44-4.3-5.85-1.94-3.15-1.27-1.63-2.38-2.92-3.26-4.18l-2.58-3.56-2.84-3.88-3.64-5.44c0.53,1,1.18,2.12.75,1.61-1.06-1.58-2.25-3.7-2-3.54l0.29,0.41a131.89,131.89,0,0,1-9.18-16.8c-1.46-2.89-2.62-5.85-3.82-8.53-0.59-1.34-1.18-2.63-1.75-3.84s-1-2.4-1.5-3.46l0.22,0.48-1.91-4.46c-0.48-1.12-1-2.23-1.26-3.09l-0.53-1.42c-1.39-4.25,1,2.47.13-.71-0.94-2.44-1.74-4.65-2.45-6.7s-1.15-4-1.67-5.91l-0.77-2.8L252,335.1l-0.32-1.41c-0.44-1.9-.91-3.83-1.46-5.92-0.1-.83-0.25-1.82-0.45-2.92s-0.34-2.35-.55-3.66L248.44,317c-0.27-1.45-.56-3-0.73-4.5-0.4-3.08-.87-6.22-1.2-9.16s-0.39-5.7-.44-8l-0.14.53a19.44,19.44,0,0,1-.12-4.53c-0.13.25-.1,2.53-0.23,1.09L245.34,285c0-1.25-.11-2.5-0.06-3.76l0.1-3.78,0.11-3.8c0-1.27.05-2.54,0.19-3.81l0.65-7.63,0.17-1.91,0.26-1.9,0.53-3.81c0.36-2.54.67-5.08,1.2-7.58l1.43-7.51,1.78-7.39a51.05,51.05,0,0,0,1.12-5.93,37.28,37.28,0,0,1,1.94-7.23l-0.41,2.64c3.84-14.43,10.25-28.74,17.06-41.65-0.36.79-.31,0.85-1,2.12,0.78-1.33,2.27-3.76,3.44-5.94A34.35,34.35,0,0,0,276,172c1.25-1.9.44-.35,1.28-1.48,1.81-2.51,3.89-6.74,5.07-7.92a8.37,8.37,0,0,1-.74,1.23c1.05-1.72,5.46-7.64,4.11-6.23,1.6-2.23,3.23-4.28,4.74-6.25l2.22-2.86,1.08-1.35,1.13-1.23c1.65-2.34,6.21-7,6.59-7.92,0.08,0.61,6.82-6.77,9.3-9.21-0.75.9,2.28-2,1.43-.9,2.81-2.79,5.56-5.14,4.87-4.88,2.94-2.17,5.59-4.71,8.15-6.74,1.26-1,2.44-2,3.53-2.87a16.17,16.17,0,0,1,3.06-2l7-5.15,7-4.65c0.58-.38,1.14-0.77,1.72-1.13l1.76-1,3.49-2.07,3.46-2,3.53-1.85A6.22,6.22,0,0,1,358,94.58l-1.64.88-1.81,1c-2.44,1.42-4.78,2.78-4.46,2.88L356,95.81c1.83-1,3.57-2,5.3-2.93l2.62-1.42,1.34-.72,1.4-.66c1.9-.89,3.93-1.81,6.21-2.81s-1.26.78-2,1.21l3.38-1.58c1.12-.52,2.27-0.93,3.39-1.4l6.67-2.63,6.59-2.25,3.22-1.13,3.22-1a16.38,16.38,0,0,1-1.79.64c1.69-.49,4-1.05,3.7-1.2l-1.63.52c-2.79.49,6.55-2.52,6.83-2.73-2.77,1.24,8.64-1.84,4.19-.05,1.12-.3,2.51-0.72,2.22-0.79,1.68-.35,2.23-0.39.57,0.15,1.53-.38,2.53-0.65,3.27-0.85l1.68-.41c0.91-.23,1.76-0.44,4.57-0.94a15.57,15.57,0,0,1-1.69.56,62.16,62.16,0,0,1,10.44-1.93c-0.28.1,0.29,0.1-1.14,0.28,2.05-.27,4-0.55,5.79-0.83l1.37-.21,1.36-.14,2.7-.28c1.81-.19,3.64-0.37,5.6-0.54s4-.15,6.31-0.18c-2.67.5,3.1,0.06,3.58,0.42,0,0,1.22-.07,2.44-0.1h2.44l-2-.23c2.14,0.06,4.16,0,6.11,0a46.14,46.14,0,0,1,5.65.2l-1.59,0-1.6,0,1.25,0c0.75,0,1.75.11,2.75,0.17l4,0.27-4.52-.49c4.34,0.14-.43-0.51,5.26,0-1.16,0,4.29.27,6.48,0.86h0c2.12,0.15,4.31.3,7.44,0.79,0.8,0.22-.72.32-0.2,0.47a52.56,52.56,0,0,1,6.08.85c2.54,0.44,5.17.83,6.48,1-0.88-.12-1,0.06-0.69.16l1.77,0.15c1.92,0.53,2.19.63,1.84,0.71,5.81,1.39-1.74-.89,5.12.91-0.55-.11-0.3,0-1.44-0.23,6.88,1.83,13.33,3.47,19.47,5.77,1.7,1-5.45-1.75-3.45-.74A187.44,187.44,0,0,1,551,91.1l-1.5-.81c1.36,0.11,6,3.29,10.14,5.26-1-.54-1.44-0.46-1.14-0.37,2.7,1.58,5.47,3.16,8.63,4.89,1.56,0.9,3.16,1.92,4.91,3l2.71,1.66,1.43,0.88,1.44,1-1-.57c1.47,1.12,3.43,2.54,5.44,4,1,0.73,2,1.42,3,2.15l2.58,2.06c1,0.62,2.79,2,1.82,1,1.14,1,2.31,2,3.44,3s2.22,2,3.32,3c2.22,1.93,4.46,3.75,6.52,5.71l3.12,2.86c1,1,2.07,1.88,3,2.9,1.92,2,3.78,4,5.54,6.1-0.9-.94-2.23-2.16-1.51-1.41l1,1c0.62,0.61,1.39,1.47,2.16,2.34l3.08,3.46a17.93,17.93,0,0,0-1.83-2.6c0.87,0.8,2.67,2.71,4.18,4.46-2.88-3-.22.23,0.77,1.75-0.13-.28.31,0.15,0.27,0,2.68,4.07.87,0.35,4.75,5.73l-0.31-.2,1.18,1.41,1.11,1.44c0.74,1,1.48,2,2.25,3.06,0.42,1.06-1.63-2.08-1.91-2.09,2.17,3.06,4.78,5.71,6.33,8.77-0.92-1.3-2.15-3.24-3.17-4.48,1,1.58,1.47,2.49,1.93,3.27l1.63,2.62-0.14-.23,1.65,2.71,1.14,1.86c0.31,0.51.49,0.86,0.49,0.86s-0.18-.37-0.37-0.72l-0.4-.7a41.51,41.51,0,0,1,4,6.14l2,3.52c0.67,1.25,1.39,2.56,2.21,3.92-3.19-5.28-.68-0.79-1.17-1.07,0.66,1.48,1.69,3.7,1.3,3.12a31.11,31.11,0,0,1,1.91,3.67,43.22,43.22,0,0,0,2.2,4.56c0,0.21,1.31,2.91.81,2.4,1.67,3.5-.22-0.9,0-0.66,2.77,5.34,5,13.15,8.07,21.18,1.21,3.51,1.86,5.62,2.59,7.63l1.09,3.16c0.35,1.17.69,2.5,1.13,4.18,0.37,2.31-.77-1.78-0.77-1.78,0.35,1.85.69,3.46,1.06,5s0.79,3.11,1.12,4.85c-0.21-.69-0.15.05-0.07,1.13,0.52,2.79.68,1.81,1.2,5.52a26.73,26.73,0,0,1-.88-2.73l1.06,4.9,0.82,5c-0.05.93-.52-2-0.78-3.23,0.56,3.85,1.47,10,1.72,11.16l-0.1-2.5c0.12,1.42-.15.75-0.32-0.29-0.63-3.29-.51-4.78-0.44-5l0.37,2.44a33.29,33.29,0,0,0-.65-6.51c-0.19-1.38-.56-2.81-0.85-4.21s-0.58-2.77-.79-4l0.77,2-1.24-5a2.71,2.71,0,0,1,0-1c0.07,0,.26.37,0.49,1.58-0.49-3.55-.82-3.06-1.26-6.1,0-.34,0-0.19.1,0.11l-0.91-3.37c0.24,0.65.15-.64,0.58,1.47-0.31-1.54-.58-2.93-0.93-4.16s-0.71-2.32-1-3.29a32.22,32.22,0,0,1-1.27-4.6l0.17,0.5a31.79,31.79,0,0,0-1.25-3.7c-0.23-.54-0.28-0.57-0.32-0.52s-0.1.44-1.31-2.58l-0.69-4.4-0.56-.71c-0.3-.84-0.94-2.5-0.7-2.24-1.42-3,.08.58-0.81-1.16-0.68-2-1.75-4.83-2.76-7.17a23.36,23.36,0,0,1-1.9-4.83c-0.85-1.31,1.54,3.83-.51-0.3a11.66,11.66,0,0,0-1.34-3.4c-0.79-1.46-1.79-3.18-2.58-5,0.79,1,2.37,4.35.78,0.72a27.26,27.26,0,0,1-2.47-4.53c-0.88-1.84-1.91-3.74-2.76-5.17-0.2,0-1.13-1.53-2.38-3.68s-3-4.78-4.56-7.11c0.38,0.18-5.7-8.84-8.83-13l0.14,0.08a20.48,20.48,0,0,1-2.74-3l-2-2.42c-0.66-.84-1.4-1.61-2-2.34,0.26,0,.81.44,2.24,2l-0.36-.45-0.83-1-1.2-1.39a39.77,39.77,0,0,1-3-3.18l0.81,0.52c-0.81-.92-1.62-1.84-2.47-2.76l-2.72-2.72L610,132.48l-1.5-1.59-1.63-1.62c-0.43-.06,3.11,3.95-1.81-0.5-0.08-.27-0.1-0.61,1.2.55-0.42-.38-1.55-1.32-2.34-2.15l2.08,1.66c-2-2-1.22-.89-2.86-2.48,0.17-.11-1.13-1.27-0.78-1.16,0.44,0.39,1.39,1.44,2.08,2-0.92-.9-1.93-1.91-2.78-2.8s-1.62-1.59-2-2c0.1,0.23-.18.2-1.62-1-3.7-3.19-1.11-1.27-3.2-3.22-1-.71-3.32-2.74-3.58-2.55a9.59,9.59,0,0,1-1.63-1.56c-1-.71-3.34-2.59-5.21-3.9s-3.22-2.18-2.15-1.23l0.52,0.39-0.34-.23h0c-1.73-1.14-3.46-2.34-5.2-3.58s-3.57-2.35-5.36-3.54c-3.53-2.44-7.25-4.58-10.84-6.59l0.06-.08c-2.13-1.23-4.61-2.37-6.89-3.53a64.33,64.33,0,0,0-6.07-2.81c-1.32-.6-3-1.57-2.43-1.43L537,83.74c3.58,1.23-1.15-.62,3.65,1.3A101.51,101.51,0,0,0,530.15,81c1.78,0.33-3.38-1.48-5.6-2.15l3.18,1.27c-2.48-.8-4.63-1.55-6.82-2.31l1.29,0.08c-2.34-.89-4.65-1.47-6.85-2.08S511,74.62,509,74.26s-4.06-.8-6-1.25l-2.85-.69c-0.94-.21-1.88-0.43-2.8-0.68-2.65-.24,5.31,1.12,2.93,1-4.51-.84-9.14-2.18-10.57-2.4a45.67,45.67,0,0,0-6.1-.62c-0.75,0-1.52-.06-2.5-0.14-0.49,0-1-.1-1.66-0.17l-2.16-.19c0.83,0.18,1.59.56-3.32,0.3-4.57-.39-5.6-0.92-2.7-0.8a6,6,0,0,1,1.58.19c1.48,0.07,3.43.17,1.63-.1l-0.6.07c-1.13-.15-3.28-0.34-5-0.5S466,68.07,466.76,68c-3.48,0-1.49.16,1.08,0.28-2.95-.16-5.25-0.22-7.58-0.27-1.16,0-2.33-.08-3.59-0.05l-4.12.06c1,0,1.86.16,0.9,0.18a48.51,48.51,0,0,0-6,.22c-0.31,0-.53.1-1,0.15s-1.33.17-2.83,0.3c-3.43.08,1.2-.52-4.85,0.09-3.71.16-.81-0.25,0.65-0.46-1.38.16-2.71,0.28-4,.38s-2.48.28-3.63,0.39c-2.28.22-4.28,0.37-5.85,0.54l2.89-.46c-1.73.29-3.15,0.43-4.59,0.66,0,0,.42,0,0.84,0h0.84c-1.71.14-3.13,0.48-3.12,0.35-1.71.46,1.39,0.15-2,1-2.26.31-6.82,1.29-7.64,1.23,7.07-1.27-.85-0.2,5.12-1.35-1.15.25-2.56,0.48-4.26,0.76-0.26,0,.22-0.12.68-0.22-6.78,1.22-3,1-10,2.63,0.42-.19,0-0.18-0.67-0.08a17.25,17.25,0,0,0-2.12.52c2.77-.78,1.4-0.09-1.1.76-4.43,1.11-4.74,1.45-7,2.09l2.64-.68a16.84,16.84,0,0,1-2.21.79c-1,.33-2.31.8-3.81,1.33-0.3,0,2.7-1,1.61-.71a47.15,47.15,0,0,1-5.62,1.88c-1,.32-2.14.59-3.23,1s-2.21.84-3.34,1.34c-2.17.73-.33-0.23-2.22,0.43-2.53,1.12-3.95,1.6-5.36,2.2s-2.88,1.15-5.49,2.44c1.63-.47,1.87-0.65-1.76,1.25l8.63-4.08-5.44,2.84c2.63-1.16,5.45-2.69,7.08-3.26-2.63,1.27-2.34,1.17-1,.76a47.79,47.79,0,0,0-5.44,2.39c-1.81.92-3.73,1.78-5.78,2.75l-0.14-.59c-3.1,1.47-5.82,2.85-8.65,4.54L349.69,97c-1.59,1-3.35,1.91-5.22,3.12l1.23-.73c0.61-.38,1.25-0.7,1.25-0.7-0.92.79-4.61,3-7,4.59,0.12-.31-1.44.6-2.54,1.17,0.2,0-5.32,3.76-5.74,4.55l-1.69,1c-0.86.51-1.66,1.09-1.66,1.09-5.7,4.37-6.16,5.42-11.37,9.92,1.43-1.52-1,.43,2.36-2.72a29.26,29.26,0,0,0-3.27,3A38.31,38.31,0,0,0,313.1,124a45.38,45.38,0,0,1-3.28,3.15,20.88,20.88,0,0,1-2.61,2.87c-0.23.17-.06-0.08-0.06-0.08s-0.69.75-1.16,1.31-0.73.93,0.13,0.19c-5.4,4.63-13.49,14.48-17.5,19.17l-2.39,3.11c-0.81,1.08-1.56,2.22-2.34,3.33-1.53,2.24-3.11,4.37-4.35,6.28a1.59,1.59,0,0,1,.41-0.78c-3.54,5.21-1.64,3.55-5.61,9.49-1,1.5-.61.66-0.07-0.33s1.28-2,.61-1.13c-0.58.23-1.61,2.13-2.88,4.45s-2.8,5-4,7.12l0.5-1.06c-1.85,3.2-4,8.07-6.41,13.58,0,0,.07-0.29-0.08-0.07-0.35,1-.8,2.15-1.33,3.44s-1,2.77-1.57,4.25c-1.06,3-2.37,6.13-3.18,8.91,0.34-1.79.72-2.53,0.12-1.58-0.8,2.47.63-.58-1,4.34-0.65,1.55-2,5-2.36,5.45l0.21-.74c0.13-.44.33-1,0.52-1.6l0.78-2.32a24.61,24.61,0,0,0-1.52,4.16c-0.4,1.54-.76,3.1-1.14,4.33l-0.06-.36c-2.05,7.21-1.53,7.45-3.4,15.27l0.3-.79a35.27,35.27,0,0,1-.72,4,24,24,0,0,0-.71,4l-0.62,1.24-0.41,2.87-0.37,3.91-0.42,4.34c-0.15,1.45-.31,2.87-0.36,4.17a55.26,55.26,0,0,1,.34-6.09c0.21-2.35.41-4.82,0.61-6.69-0.41,2.85-1.22,9.71-1.22,11.22,0.1-1.15.2-2.61,0.4-3.74-0.24,3.53-.32,8.17-0.79,13.87-0.4-.53-0.56,3.2-0.69,7.58s0,9.41-.25,11.5l0.18,3.8,0.31,3.8c0.21,2.54.33,5.11,0.58,7.72l0.92,8,0.25,2.07,0.36,2.09,0.76,4.29c-0.15-4.24.62,3.4,1.1,2.57,0.24,1.35.48,2.27,0.62,2.89a10.08,10.08,0,0,1,.21,1.06l0.76,4.1,0.52,2.82c0.13,0.77.26,1.28,0.26,1.28,0.19,1,0,.35-0.29-0.48a8.89,8.89,0,0,0-.53-1.76c0.32,1.48.52,2.37,0.66,2.93a6.42,6.42,0,0,1,.18,1,10,10,0,0,0,.44,2.47c0-.85.88,1.94,1.74,5.27l-1.05-4.74c0.65,2,1.07,3.46,1.38,4.63l0.8,2.94a62.15,62.15,0,0,0,2.45,7.54l-1-2.49c0.68,2.08,2.21,5.81,3.72,9.53l1.14,2.76,1.22,2.53c0.78,1.59,1.49,3,2,3.88,0.25,0.73.52,1.73-.31,0,4.32,9.52,11,20.42,15.37,27.26l-0.55-.58c1.11,1.6,2,2.73,3.33,4.78-0.12-.07-0.58-0.55-0.06.19s3.21,4.06,4.63,6.21l-1.41-1.7a66.5,66.5,0,0,0,4.12,5.49c1.31,1.61,2.53,3.07,3.72,4.48l7.79,8.39c-0.17.14,1.1,1.68,2.75,3.56s3.67,4.11,5.13,5.48l-0.14-.05c2.14,2.05,4.12,4,6.06,5.7l5.82,4.84c1.87,1.61,3.87,3,5.87,4.51s4,3.09,6.32,4.6c1.32,1.08,3.14,2.47,5.28,4s4.72,3.14,7.34,4.86l2,1.29c0.68,0.42,1.38.81,2.07,1.21l4.15,2.41c2.71,1.65,5.45,3,7.86,4.34-1.45-.83.4-0.18,2.15,0.67,2.21,1.33,6.55,2.73,6,3l-0.83-.38a61.9,61.9,0,0,0,10.29,4.76l0.83-.24a68.93,68.93,0,0,0,8.37,3.43l4.67,1.57c0.79,0.25,1.57.53,2.35,0.76l2.36,0.64c3.12,0.82,6.06,1.69,8.62,2.32a63,63,0,0,1,6.08,1.66c1.29,0.21,2.7.57,4.14,0.77s2.87,0.45,4.15.61l-0.19.25,4.79,0.9c1.46,0.29,2.87.41,4.31,0.62l4.64,0.59,2.7,0.33,3.1,0.22-1.83.06a36.59,36.59,0,0,0,5.66,0c0.77,0,1.53-.09,2.39-0.11s1.8,0,3,0l1.38,0.46,6.59,0.21,1.65,0.06,1.65,0,3.3,0c2.2,0,4.4-.05,6.58-0.18s4.35-.4,6.5-0.66a4.47,4.47,0,0,1-1.8.34c4.13-.1,15.91-1.47,14.35-1.83,0.17,0.48,8.94-1.41,13.53-2.5l-0.66.44a89.78,89.78,0,0,1,9.32-2.72c1.29-.27,1.18,0-0.54.28A18,18,0,0,0,512,489c0.58-.18,1-0.34,1.48-0.5a43.27,43.27,0,0,1,4.53-1.35l-1.86.71a30.76,30.76,0,0,0,6.3-2.16,68.46,68.46,0,0,1,8.86-2.68,31.51,31.51,0,0,1,5.25-2.38c0.37,0-.51.37-1,0.57,1.78-.65,3.31-1.25,4.69-1.81s2.56-1.2,3.69-1.75c2.26-1.11,4.28-2,6.68-3a2,2,0,0,0,.86-0.25c-1.33.71-2.65,1.27-3.82,1.8l-3.1,1.39c-1.74.78-2.74,1.22-2.54,1.12,0.1,0.24,4.55-1.73,1.17.19l6.55-3.36c2.42-1.31,4.91-2.71,7.05-3.73a5.92,5.92,0,0,1,.6-0.21l-0.42.25c1-.48,1.85-0.94,2.64-1.41,1.33-.72,2.18-1.17,3.44-1.89A20.81,20.81,0,0,0,566,467c1.42-.8,3-1.75,4-2.43-0.32-.13,2.38-1.8-0.25-0.4a11.17,11.17,0,0,1-1.73,1.14c-0.31.19-.68,0.41-0.88,0.54l0.13-.1-5.21,3a46.29,46.29,0,0,1,5.66-3.38c1-.78,2-1.71,2.62-2.18,1.5-.73,3.62-1.91,5.48-2.94,0.94-.5,1.78-1,2.44-1.43a12.15,12.15,0,0,1,1.38-.76l4.77-3.51c0.84-.59,1.65-1.24,2.45-1.89l2.38-1.93c1.55-1.27,3-2.49,4.33-3.61s2.32-2.23,3.11-3.09a12.72,12.72,0,0,1,2.57-1.92c-0.88.83-2,1.77-2.43,2.26l2.78-2.5,1.58-1.4L602.7,439a35.59,35.59,0,0,0,3.79-4c2-1.77,1.5-1.19,1.18-.81-0.16.19-.28,0.34,0,0.11a29.83,29.83,0,0,0,2.11-2.13l-0.6.79c2.57-2.49,4.84-4.82,6.93-7.12s3.85-4.69,5.74-7,3.6-4.88,5.62-7.47c1-1.28,2-2.69,3.07-4.13s2.2-2.93,3.42-4.5a13.68,13.68,0,0,1-1.19,1.45c0.67-.91,1.35-1.82,2-2.75l1.88-2.87c1.24-1.92,2.51-3.85,3.73-5.81l3.44-6c0.57-1,1.16-2,1.7-3l1.57-3.11c1-2.08,2.11-4.13,3.12-6.21L653,368c0.47-1,1-2.08,1.42-3.13l1.29-3.16,2.61-6.23a69.28,69.28,0,0,0,2.5-8.36l0.64-.95s0.1-.32.2-0.8l0.38-1.79,0.56-2.59c0.45-1.82.94-3.5,1.46-5.14l1.39-5c0.47-1.69.95-3.44,1.41-5.35s0.72-4,1-6.39l-0.42,1.17c0.3-1.68.8-4.33,1.11-6.52s0.51-3.88.59-3.58a9.91,9.91,0,0,1,.2-2.45l0.17-.08,0.12-1.3c0.07-.78.19-1.82,0.25-2.87l0.18-4.19c0.3-3.23.44-3,.6-3.08a1.53,1.53,0,0,0,.27-0.93,32.11,32.11,0,0,0,.32-4.41c0-3.54-.21-10.06-0.35-8.73a18.25,18.25,0,0,1-.35,3.73v-3.22c-0.45-.59-0.87-3-1.39,4.81l0.15,5.48L669,294.76l0.05-.72c0-.43.09-1,0.09-1.58l0.05-2.3c-0.15,1.3-.15,2.37-0.19,3.34s0,1.85,0,2.78a11.79,11.79,0,0,0-.42,2.27l0,5.4c-0.26.63-.1-2.43-0.61,1.14-0.11,2.52.71-2.35,0.32,1.8a19.76,19.76,0,0,0-.82,4.87c-0.17.41-.17-0.24-0.07-1.46-0.12,1.36-.28,3.17-0.53,4.79a33.18,33.18,0,0,0-.48,3.8c-0.37,1.32-.76,3.6-1.1,5.5s-0.81,3.4-1,3.22c-0.09.86-.75,4.77-1.29,7.23,0.24-2.31-.22,0-1,2.65s-1.66,5.73-1.76,5.07a23.07,23.07,0,0,1-.75,3.37c-0.41,1.34-.9,2.88-1.44,4.49s-1.08,3.3-1.65,4.94-1.2,3.19-1.69,4.62a10.61,10.61,0,0,1,.48-1.45c-1.28,3.14-1.77,4-2.65,6,0.19,0.55-1.91,5.39-2.86,8.09-2.05,3.62.62-2.5-.24-1.46,0.18,0-.47,1.65-1.11,3.18s-1.31,2.87-.87,2.3a24.53,24.53,0,0,1-2.38,3.69c0.16,0.72-1.22,2.7-2.31,5.1-2.5,3.87-1,.8-3.37,5.24C638,392.63,640.12,388.66,640.12,388.66Zm-85.25,82.15h0l2.2-1.15Zm-9.08,4.43c1.12-.5,2.53-1.11,4-1.81,0.35-.09.07,0.22-0.86,0.62A27.33,27.33,0,0,0,545.8,475.24Zm19.93-8.19a10.89,10.89,0,0,1-2.1,1.12l2.43-1.44,0.15-.12A2.78,2.78,0,0,1,565.73,467.06Z" transform="translate(-243.2 -67.93)"/><path class="cls-1" d="M568.05,465.29c0.2-.12.3-0.2,0.56-0.36-0.29.16-.57,0.29-0.86,0.44l-0.45.36Z" transform="translate(-243.2 -67.93)"/><path class="cls-1" d="M582.33,108.89l-0.17-.13c0.14,0.11.27,0.22,0.34,0.29Z" transform="translate(-243.2 -67.93)"/><polygon class="cls-1" points="166.41 420.62 166.41 420.69 167.28 420.83 166.41 420.62"/><path class="cls-1" d="M622.18,147.76a4.88,4.88,0,0,0,.4.62A6.4,6.4,0,0,0,622.18,147.76Z" transform="translate(-243.2 -67.93)"/><path class="cls-1" d="M636.23,167.27l1.75,2.92Z" transform="translate(-243.2 -67.93)"/><path class="cls-1" d="M645.43,183.29a1.07,1.07,0,0,0,.27.27l0,0Z" transform="translate(-243.2 -67.93)"/><path class="cls-1" d="M395.49,79.13l-0.68.21C393.23,79.87,394.3,79.51,395.49,79.13Z" transform="translate(-243.2 -67.93)"/><path class="cls-1" d="M481.91,70.75l-2.81-.22A8.84,8.84,0,0,0,481.91,70.75Z" transform="translate(-243.2 -67.93)"/><path class="cls-1" d="M312.18,127.92h0l-0.43.41Z" transform="translate(-243.2 -67.93)"/><path class="cls-1" d="M475.05,70.21c1.55,0.17,2.85.26,4.06,0.31C477.84,70.4,476.34,70.26,475.05,70.21Z" transform="translate(-243.2 -67.93)"/><path class="cls-1" d="M668.46,259.48l0.1,0.88s0,0,.05.1Z" transform="translate(-243.2 -67.93)"/><path class="cls-1" d="M668.61,260.46l0.11,1A7.41,7.41,0,0,0,668.61,260.46Z" transform="translate(-243.2 -67.93)"/><path class="cls-1" d="M668.95,263.51l-0.23-2.07A16,16,0,0,0,668.95,263.51Z" transform="translate(-243.2 -67.93)"/><path class="cls-1" d="M664.58,235.34l-0.16-.25A0.43,0.43,0,0,0,664.58,235.34Z" transform="translate(-243.2 -67.93)"/><path class="cls-1" d="M662.83,228.12c0.46,1.71.81,4.38,1.45,6.77l0.13,0.21C664,234,663.47,229.7,662.83,228.12Z" transform="translate(-243.2 -67.93)"/><path class="cls-1" d="M654,198.29s0.17,0.35.38,0.9l0.76,2,1.11,2.93c-0.3-1.06-.69-2.45.38,0.19C654,196.86,657,205.92,654,198.29Z" transform="translate(-243.2 -67.93)"/><path class="cls-1" d="M645.67,180.72c1.58,3,.12-0.11.26,0a12,12,0,0,0-1-1.54A13.21,13.21,0,0,0,645.67,180.72Z" transform="translate(-243.2 -67.93)"/><path class="cls-1" d="M544.54,86.82l0.41-.09C542.57,85.69,544.89,86.81,544.54,86.82Z" transform="translate(-243.2 -67.93)"/><path class="cls-1" d="M519,78.67l1.18,0.42c0.59,0.21,1.17.46,1.17,0.46l1.2,0.16-1.77-.56C519.92,78.89,519,78.67,519,78.67Z" transform="translate(-243.2 -67.93)"/><polygon class="cls-1" points="260.96 4.99 262.08 5.21 257.83 4.32 260.96 4.99"/><path class="cls-1" d="M291.76,146.09l0.36-.21,0.38-.2C293.62,144.32,293.57,143.8,291.76,146.09Z" transform="translate(-243.2 -67.93)"/><path class="cls-1" d="M248.14,237.21a24.67,24.67,0,0,0-1.2,5.62C247.36,240.57,247.88,238.35,248.14,237.21Z" transform="translate(-243.2 -67.93)"/><path class="cls-1" d="M383.09,483.32l-1.95-.65,1.82,0.67c0.45,0.18.91,0.33,1.26,0.43l0.58,0.18-0.86-.3C383.51,483.51,383.09,483.32,383.09,483.32Z" transform="translate(-243.2 -67.93)"/><path class="cls-1" d="M648,282.08c0.08,0.63.3,0.27,0.21-1.46l-0.36-1.23Z" transform="translate(-243.2 -67.93)"/><path class="cls-1" d="M648.2,270.36c-0.32-2-.78-4.36-1-3,0.47,2,.38,2.49.92,4.65,0.11,1.74,0,3-.15,2.75,0.1,0.61,0,2.7.23,3.64a36.19,36.19,0,0,0,.11-3.8c0-.69,0-1.4-0.08-2.13s-0.17-1.46-.27-2.21S648.13,270.22,648.2,270.36Z" transform="translate(-243.2 -67.93)"/><path class="cls-1" d="M568.49,125.85l0.87,0.67C569.13,126.33,568.83,126.1,568.49,125.85Z" transform="translate(-243.2 -67.93)"/><path class="cls-1" d="M470.06,90.59a5.32,5.32,0,0,0,1.19,0A5,5,0,0,0,470.06,90.59Z" transform="translate(-243.2 -67.93)"/><path class="cls-1" d="M452,89.89H453A7.23,7.23,0,0,0,452,89.89Z" transform="translate(-243.2 -67.93)"/><path class="cls-1" d="M568.49,125.85l-2.25-1.72A15.62,15.62,0,0,0,568.49,125.85Z" transform="translate(-243.2 -67.93)"/><path class="cls-1" d="M644.55,247.2c0.12,0.58.24,1.05,0.35,1.49l-0.29-1.41Z" transform="translate(-243.2 -67.93)"/><path class="cls-1" d="M603.06,157.08l0.56,0.65c0.19,0.17.38,0.32,0.57,0.45Z" transform="translate(-243.2 -67.93)"/><path class="cls-1" d="M623.81,186.28a2.57,2.57,0,0,0-1-1,8.62,8.62,0,0,1,1,1.44A0.43,0.43,0,0,0,623.81,186.28Z" transform="translate(-243.2 -67.93)"/><path class="cls-1" d="M644,239.14l0.26,1Z" transform="translate(-243.2 -67.93)"/><path class="cls-1" d="M585.15,138.71a0.91,0.91,0,0,0-.18-0.29A0.54,0.54,0,0,0,585.15,138.71Z" transform="translate(-243.2 -67.93)"/><path class="cls-1" d="M642.88,322.89s0,0,0,0C643,322.69,642.95,322.63,642.88,322.89Z" transform="translate(-243.2 -67.93)"/><path class="cls-1" d="M648.72,282.08v0.57a0.28,0.28,0,0,0,.15.12Z" transform="translate(-243.2 -67.93)"/><path class="cls-1" d="M419,93.23l0.15,0C420,93,419.49,93.11,419,93.23Z" transform="translate(-243.2 -67.93)"/><path class="cls-1" d="M269.22,322.81c-0.53-3.41,1.58,5.4.68,0.28C269.9,323.59,268.41,318.58,269.22,322.81Z" transform="translate(-243.2 -67.93)"/><path class="cls-1" d="M644.42,246.28l-0.26-1.43C644.27,245.5,644.35,245.94,644.42,246.28Z" transform="translate(-243.2 -67.93)"/><path class="cls-1" d="M269.9,323.09h0l-0.09-.53Z" transform="translate(-243.2 -67.93)"/><path class="cls-1" d="M349,123a5.22,5.22,0,0,0,.7-0.35A2.69,2.69,0,0,0,349,123Z" transform="translate(-243.2 -67.93)"/><path class="cls-1" d="M400.22,98.6l-1.35.41C399.41,98.86,399.84,98.72,400.22,98.6Z" transform="translate(-243.2 -67.93)"/><path class="cls-1" d="M326.18,141.75c-0.57.51-.78,0.66-1.51,1.41l0.25-.19A11.36,11.36,0,0,1,326.18,141.75Z" transform="translate(-243.2 -67.93)"/><path class="cls-1" d="M305.5,164.45l0.4-.41,0.59-.78Z" transform="translate(-243.2 -67.93)"/><path class="cls-1" d="M602.37,404.94a9.85,9.85,0,0,1,1.11-.9C603,404.27,605.9,400.85,602.37,404.94Z" transform="translate(-243.2 -67.93)"/><path class="cls-1" d="M644.7,247.15a2.84,2.84,0,0,1-.28-0.87l0.19,1C644.67,247.36,644.72,247.37,644.7,247.15Z" transform="translate(-243.2 -67.93)"/><path class="cls-1" d="M326.8,144.23l-3.52,3.3C324.28,146.62,325.56,145.42,326.8,144.23Z" transform="translate(-243.2 -67.93)"/><path class="cls-1" d="M404.77,464.83l1.08,0.27A9.56,9.56,0,0,0,404.77,464.83Z" transform="translate(-243.2 -67.93)"/><path class="cls-1" d="M313.58,158.07c-0.64.59-1.28,1.24-1.93,1.93a5.58,5.58,0,0,0-.31.47Z" transform="translate(-243.2 -67.93)"/><path class="cls-1" d="M603.5,404h0Z" transform="translate(-243.2 -67.93)"/><path class="cls-1" d="M621.2,377.63c-2.3,4-.77,2.06-1.07,3-2.87,4.69-1.6,2-2.77,3.48-0.88,1.47-1.61,2.8-2.29,4s-1.42,2.31-2.16,3.35c-0.16.12-.47,0.51-0.19,0-0.47.78-1.09,1.72-1.79,2.75l-1.11,1.6-1.26,1.62c-1.71,2.18-3.42,4.45-4.63,6.2a2.81,2.81,0,0,1-.43.36c0.59-.4.81-0.36,0.82-0.17a27.35,27.35,0,0,1-3,3.49,8.81,8.81,0,0,0,1.16-1.6l-1.34,1.71c-1.54,1.25,1.85-2.32,1.65-2.48l-4.13,5.12c-1.42,1.63-2.81,3.13-4,4.28-0.71.25,5.15-5.56,1.94-2.64l1.77-1.77,1.69-1.85c-2.91,2.54,2-2.27-.71,0l-1.47,1.66-1.24,1.31-2,2.16a62.53,62.53,0,0,1-4.86,5c-0.94,1.16.55-.14-0.39,1-1.63,1.67-2.82,2.79-3.75,3.6a25.09,25.09,0,0,1-2.31,1.68,25.51,25.51,0,0,0-4.77,3.93,24.28,24.28,0,0,1-5.5,4.9l1.08-1.33c-2.52,2-3.14,2.64-3.86,3.26a30.62,30.62,0,0,1-4.26,3.11c0.88-.81,4-3,3.2-2.49-3.7,2.26-2.37,2-5.08,3.88l-0.38.06-0.38,0L559,442.76c-1.48,1-3,2-4.54,2.94-3.14,1.87-6.31,3.9-9.69,5.57,0.32-.28,1.42-1-0.19-0.25l-3.19,1.69-1.63.85-1.69.77c-2.27,1-4.56,2.05-6.87,3l-7,2.63-1.71.63-1.71.54-3.34,1-3.22,1.4c-0.77.26-1.49,0.3-.65,0-3.46.87-.12,0.23-1.74,0.81-1.95.57-2.62,0.57-1.41,0.13a128.07,128.07,0,0,1-23.88,5.57l1.26-.31-3.12.52c-0.85.15-1.55,0.31-2.24,0.47a30.43,30.43,0,0,1-5.12.76l0.91-.17c-5.58.49-11.47,1-17,1-1.39,0-2.76.08-4.1,0.08l-3.92-.14-3.67-.17c-1.18-.06-2.3-0.13-3.36-0.29a44.5,44.5,0,0,1-6.24-.34L438,471.4l-1.69-.19a5.1,5.1,0,0,0-1.94,0c-3.16-.55-4.28-0.79-5.72-1.06s-3.19-.73-7.6-1.61c-2.37-.41-3.58-0.36-6.5-1v-0.32l-4-.59s-0.5-.2-1-0.43l-1-.47-2.7-.69a6.63,6.63,0,0,1,2,.82c-2.12-.53-4.66-1.31-6.68-2a22.67,22.67,0,0,1-3.49-1.47l-4.92-1.53c-1.24-.36-2.43-0.86-3.34-1.17l-1.51-.55a26.83,26.83,0,0,1,3.17,1c-5.23-1.72-.81-0.67-5.6-2.25,0.6,0.31-.41,0-0.54.05l-5.07-2.36-3.19-1.44c-1.07-.47-2.13-0.93-3.07-1.42l0.82,0.18-5.22-2.68c-0.89-.46-1.8-0.9-2.7-1.38l-2.68-1.52c-1.8-1-3.64-2-5.46-3.11l-5.4-3.43c2.53,1.74,1.74,1.67-.4.34l-0.67-.81c-1.48-.71,2.15,1.52-0.8-0.07-2.62-1.86-1.56-1.54,0-.57l-3.24-2.16c-0.13-.21.64,0.28,0.91,0.31-1.41-.78-5.32-4.1-7.29-5.31l-0.11-.21L337,428.88c-1.3-1.05-2.43-2.06-3.55-3l-3.31-2.81c-1.12-1-2.22-2.06-3.49-3.25-0.29.11-2.23-1.82-3.89-3.1l-5.47-6c-1.89-2.12-3.74-4.45-5.79-6.76-2.89-3.25-1-.83-2.35-2.24,0-.41-3.84-5.26-1.71-2.85-1.14-1.46-2.14-2.62-2.93-3.75l-2.31-3.19-2.55-3.47-3.27-4.88c0.46,0.91,1,1.91.65,1.45-1-1.42-2-3.33-1.77-3.19l0.27,0.36a113.3,113.3,0,0,1-8.22-15.07c-1.31-2.6-2.34-5.25-3.41-7.65-0.53-1.21-1.05-2.36-1.57-3.44s-0.91-2.15-1.36-3.1l0.2,0.43-1.73-4c-0.43-1-.88-2-1.14-2.77l-0.48-1.27c-1.24-3.81,1,2.21.15-.65-0.85-2.19-1.57-4.16-2.22-6s-1-3.61-1.5-5.3l-0.69-2.51-0.34-1.25-0.29-1.27c-0.39-1.7-.82-3.44-1.32-5.31-0.08-.75-0.21-1.63-0.38-2.62s-0.29-2.11-.48-3.29L270,313.39c-0.24-1.3-.5-2.65-0.66-4-0.37-2.76-.78-5.58-1.08-8.22S268,296,267.92,294l-0.14.48a16.19,16.19,0,0,1-.09-4.06c-0.13.22-.1,2.27-0.23,1l-0.22-6.68c-0.11-2.24,0-4.5,0-6.77s0.08-4.55.28-6.82l0.59-6.84,0.16-1.71,0.24-1.71,0.48-3.41c0.32-2.27.61-4.55,1.09-6.8l1.29-6.74,1.6-6.62a38.54,38.54,0,0,0,1-5.33,30,30,0,0,1,1.73-6.48l-0.33,2.38c3.41-13,9.19-25.77,15.26-37.36-0.32.72-.27,0.77-0.84,1.91,1.5-2.33,5.08-8.87,4.92-9,1.12-1.71.41-.31,1.17-1.31,1.63-2.24,3.46-6.06,4.54-7.11a6.64,6.64,0,0,1-.66,1.11c0.94-1.55,4.9-6.85,3.67-5.6,1.44-2,2.9-3.83,4.25-5.6l2-2.57,1-1.21,1-1.1c1.46-2.12,5.58-6.3,5.89-7.12,0.11,0.58,6.14-6,8.35-8.25-0.66.82,2.05-1.76,1.3-.78,2.52-2.5,5-4.62,4.34-4.4,2.66-1.93,5-4.21,7.31-6,1.12-.94,2.18-1.82,3.16-2.58a13.48,13.48,0,0,1,2.76-1.76l6.23-4.64,6.25-4.18,1.54-1,1.58-.94,3.13-1.86,3.1-1.84,3.16-1.67a5,5,0,0,1-1.49,1l-1.47.79-1.62.94c-2.18,1.27-4.29,2.5-4,2.6l5.25-3.21c1.64-.94,3.2-1.78,4.74-2.64l2.34-1.28c0.79-.44,1.6-0.86,2.46-1.24,1.71-.8,3.53-1.62,5.57-2.52s-1.12.72-1.8,1.11l3-1.42c1-.47,2-0.84,3-1.25l6-2.36,5.91-2,2.89-1,2.88-.9a13.2,13.2,0,0,1-1.6.58c1.51-.44,3.54-0.94,3.32-1.09l-1.46.47c-2.51.41,5.86-2.32,6.11-2.53-2.47,1.17,7.76-1.64,3.78,0,1-.27,2.25-0.66,2-0.74,1.51-.31,2-0.34.51,0.16,1.37-.34,2.27-0.59,2.93-0.77l1.5-.38c0.82-.22,1.58-0.4,4.1-0.85a12.63,12.63,0,0,1-1.51.53,52.4,52.4,0,0,1,9.36-1.76c-0.25.09,0.26,0.11-1,.27,1.84-.24,3.55-0.49,5.19-0.75s3.25-.39,4.87-0.59,3.27-.34,5-0.5,3.61-.13,5.66-0.16c-2.4.49,2.78,0.07,3.22,0.43,0,0,1.09-.07,2.19-0.1h2.19L458,91.55c1.92,0.05,3.73,0,5.48,0a39.2,39.2,0,0,1,5.07.17l-1.43,0-1.43,0,1.13,0c0.68,0,1.57.1,2.47,0.15l3.59,0.24-4.06-.45c3.9,0.1-.39-0.5,4.72,0a57.29,57.29,0,0,1,5.81.8h0a64,64,0,0,1,6.68.7c0.72,0.21-.65.33-0.19,0.47a43.24,43.24,0,0,1,5.45.74c2.28,0.4,4.64.74,5.82,0.89-0.79-.1-0.87.08-0.62,0.18l1.59,0.11c1.72,0.48,2,.58,1.65.66,5.21,1.25-1.55-.84,4.6.79-0.49-.09-0.27,0-1.29-0.2,6.17,1.65,12,3.1,17.47,5.17,1.52,0.91-4.89-1.56-3.11-.62a166.14,166.14,0,0,1,23.91,9.38L540,110c1.24,0.05,5.34,3,9.1,4.72-0.89-.48-1.3-0.39-1-0.31,2.42,1.42,4.91,2.83,7.74,4.38,1.4,0.81,2.84,1.72,4.41,2.66l2.43,1.48c0.85,0.5,1.71,1,2.58,1.66l-0.94-.5c1.31,1,3.08,2.28,4.87,3.57,0.89,0.65,1.82,1.27,2.65,1.93l2.31,1.85c0.92,0.55,2.51,1.83,1.66.9,1,0.93,2.06,1.81,3.07,2.69s2,1.8,3,2.67c2,1.73,4,3.36,5.85,5.11s3.79,3.36,5.51,5.15,3.38,3.61,5,5.48c-0.81-.84-2-1.93-1.37-1.26l0.91,0.93c0.56,0.54,1.25,1.32,1.94,2.1l2.77,3.1a14.5,14.5,0,0,0-1.62-2.36,54.1,54.1,0,0,1,3.77,4c-2.59-2.72-.22.23,0.66,1.6-0.11-.26.29,0.13,0.26,0,2.37,3.68.81,0.28,4.27,5.13l-0.29-.17,1.06,1.26,1,1.29c0.67,0.86,1.34,1.75,2,2.74,0.36,1-1.48-1.86-1.74-1.85,1.95,2.74,4.33,5.09,5.7,7.85-0.83-1.17-1.93-2.91-2.85-4,0.85,1.43,1.3,2.24,1.71,3l1.45,2.35-0.12-.21,1.48,2.44,1,1.67c0.28,0.45.44,0.77,0.44,0.77s-0.16-.33-0.33-0.65l-0.35-.63a34,34,0,0,1,3.64,5.49l1.83,3.16c0.6,1.12,1.25,2.29,2,3.5-2.9-4.72-.64-0.7-1.1-0.93,0.59,1.33,1.5,3.33,1.14,2.81a25.42,25.42,0,0,1,1.71,3.29,34.77,34.77,0,0,0,2,4.08c0,0.19,1.17,2.61.7,2.16,1.5,3.14-.18-0.82,0-0.6,2.51,4.78,4.43,11.81,7.25,19,1.09,3.15,1.69,5,2.35,6.84l1,2.83c0.32,1,.63,2.24,1,3.75,0.32,2.07-.73-1.59-0.73-1.59,0.31,1.66.61,3.1,0.94,4.52s0.72,2.79,1,4.35c-0.2-.62-0.15.05-0.09,1,0.47,2.5.65,1.61,1.1,4.95a21.7,21.7,0,0,1-.83-2.44l1,4.39,0.75,4.52c-0.06.84-.49-1.83-0.74-2.9,0.51,3.45,1.33,8.94,1.59,10l-0.08-2.25c0.11,1.27-.16.67-0.31-0.25-0.59-2.94-.45-4.29-0.38-4.47l0.34,2.19a26.82,26.82,0,0,0-.57-5.84c-0.42-2.47-1.14-5.15-1.49-7.35l0.74,1.76L644.58,244a2.19,2.19,0,0,1,0-.93,2.46,2.46,0,0,1,.46,1.41c-0.42-3.19-.75-2.74-1.13-5.48,0-.3,0-0.17.1,0.1l-0.83-3c0.22,0.58.17-.58,0.54,1.31-0.27-1.38-.51-2.63-0.83-3.74s-0.64-2.08-.92-2.95a26,26,0,0,1-1.14-4.13l0.15,0.45a27.44,27.44,0,0,0-1.13-3.32c-0.21-.49-0.26-0.51-0.3-0.46s-0.11.4-1.22-2.3l-0.55-4-0.53-.62c-0.27-.76-0.84-2.24-0.62-2-1.29-2.71.06,0.52-.76-1-0.59-1.84-1.56-4.34-2.47-6.44a18.86,18.86,0,0,1-1.68-4.34c-0.78-1.17,1.36,3.45-.49-0.25a9.42,9.42,0,0,0-1.18-3.06c-0.71-1.31-1.62-2.85-2.32-4.48,0.74,0.84,2.14,3.9.74,0.63a22,22,0,0,1-2.23-4.06c-0.79-1.66-1.7-3.37-2.47-4.65-0.19,0-1-1.36-2.15-3.29s-2.71-4.29-4.1-6.38c0.35,0.15-5.1-7.94-7.9-11.68l0.13,0.07a16.55,16.55,0,0,1-2.48-2.68l-1.76-2.17c-0.6-.75-1.26-1.44-1.84-2.1,0.25,0,.75.37,2,1.77l-0.32-.4-0.74-.86-1.08-1.25a32.08,32.08,0,0,1-2.75-2.84l0.75,0.45c-0.72-.83-1.46-1.65-2.22-2.47L597,150.43c-0.84-.84-1.7-1.71-2.58-2.63L593,146.37l-1.46-1.46c-0.4,0,2.74,3.6-1.68-.38-0.06-.25-0.06-0.57,1.11.46-0.38-.34-1.4-1.17-2.1-1.93l1.88,1.47c-1.79-1.85-1.11-.79-2.58-2.22,0.16-.12-1-1.15-0.68-1.06,0.39,0.35,1.24,1.3,1.86,1.78-0.83-.81-1.73-1.72-2.49-2.52s-1.45-1.44-1.74-1.81c0.08,0.22-.18.2-1.48-0.89-3.32-2.86-1-1.16-2.85-2.92-0.86-.62-3-2.46-3.23-2.27a7.77,7.77,0,0,1-1.45-1.42c-0.95-.64-3-2.32-4.68-3.49s-2.9-2-1.95-1.08L570,127l-0.31-.2h0c-1.56-1-3.12-2.09-4.67-3.2s-3.21-2.11-4.8-3.19c-3.17-2.2-6.5-4.13-9.73-5.92l0.06-.08c-1.91-1.1-4.14-2.12-6.18-3.16a55.06,55.06,0,0,0-5.45-2.5c-1.18-.54-2.72-1.43-2.17-1.31L533.27,106c-1-.47-2.24-1-4.47-1.92,3.22,1.08-1-.57,3.28,1.16a83,83,0,0,0-9.39-3.64c1.6,0.28-3-1.36-5-2l2.85,1.16c-2.23-.71-4.16-1.39-6.13-2.08l1.17,0a63.63,63.63,0,0,0-6.15-1.88c-2-.51-3.87-1-5.74-1.35s-3.65-.71-5.38-1.11l-2.56-.63c-0.85-.19-1.68-0.39-2.51-0.63-2.38-.19,4.77,1,2.62.91-4-.76-8.2-2-9.48-2.21a36.83,36.83,0,0,0-5.48-.54c-0.68,0-1.36,0-2.25-.11l-3.43-.32c0.74,0.18,1.42.54-3,.32-4.1-.36-5-0.88-2.42-0.78a4.89,4.89,0,0,1,1.42.18c1.33,0.06,3.08.14,1.46-.11l-0.54.08c-1-.14-2.94-0.31-4.45-0.46s-2.59-.16-1.92-0.25c-3.13,0-1.34.16,1,.28-2.64-.15-4.71-0.21-6.8-0.25-1,0-2.09-.08-3.22,0l-3.7,0c0.87,0,1.67.16,0.81,0.18a39.1,39.1,0,0,0-5.43.2,30.41,30.41,0,0,1-3.48.43c-3.08.05,1.07-.51-4.35,0.05-3.33.13-.73-0.26,0.58-0.46-1.24.15-2.43,0.26-3.58,0.35s-2.23.25-3.26,0.35c-2.05.19-3.84,0.31-5.26,0.47l2.59-.43c-1.55.26-2.83,0.39-4.12,0.6,0,0,.38,0,0.76,0l0.76,0a26.18,26.18,0,0,1-2.8.3c-1.54.43,1.26,0.18-1.8,0.94-2,.26-6.12,1.17-6.86,1.09,6.35-1.13-.77-0.21,4.59-1.25-1,.23-2.3.44-3.82,0.69-0.23,0,.2-0.12.61-0.2-6.09,1.07-2.7,1-8.93,2.4,0.37-.18,0-0.18-0.61-0.1a14.21,14.21,0,0,0-1.91.46c2.49-.7,1.26-0.05-1,0.73-4,1-4.26,1.32-6.32,1.89l2.37-.61a13.59,13.59,0,0,1-2,.72c-0.92.3-2.07,0.72-3.42,1.2-0.27-.05,2.42-0.92,1.44-0.65a38,38,0,0,1-5,1.69c-0.93.28-1.92,0.52-2.9,0.89s-2,.76-3,1.21c-2,.64-0.31-0.24-2,0.35-2.27,1-3.54,1.44-4.81,2s-2.59,1-4.93,2.18c1.47-.4,1.68-0.56-1.56,1.16l7.74-3.68-4.87,2.58c2.36-1,4.89-2.43,6.35-2.93-2.35,1.16-2.1,1.06-.9.71a38.51,38.51,0,0,0-4.88,2.14c-1.62.83-3.34,1.61-5.19,2.47l-0.15-.59a84.12,84.12,0,0,0-7.77,4.08l-4,2.44c-1.43.86-3,1.72-4.68,2.8l1.11-.65c0.55-.33,1.12-0.62,1.12-0.62-0.81.73-4.14,2.67-6.27,4.13,0.1-.29-1.31.51-2.3,1,0.19,0-4.78,3.38-5.13,4.12l-1.53.93c-0.78.45-1.5,1-1.5,1-5.13,3.92-5.49,4.91-10.17,8.95,1.27-1.38-1,.36,2.09-2.48a23.6,23.6,0,0,0-2.93,2.67,31.56,31.56,0,0,0-2.63,2.39,36.57,36.57,0,0,1-2.94,2.82,16.87,16.87,0,0,1-2.32,2.6c-0.21.15-.06-0.08-0.06-0.08s-0.61.68-1,1.18-0.65.84,0.13,0.18c-4.9,4.11-12.1,13-15.75,17.18l-2.14,2.8c-0.72,1-1.4,2-2.1,3-1.37,2-2.79,3.93-3.9,5.64a1.29,1.29,0,0,1,.36-0.71c-3.19,4.66-1.43,3.21-5,8.54-1,1.34-.57.58-0.08-0.3s1.15-1.84.54-1c-0.55.19-1.47,1.9-2.61,4s-2.5,4.52-3.6,6.39l0.44-1a134.64,134.64,0,0,0-5.74,12.2s0.06-.26-0.08-0.07c-0.31.88-.71,1.93-1.17,3.1s-0.89,2.49-1.39,3.82c-0.95,2.7-2.11,5.51-2.84,8,0.28-1.61.63-2.28,0.07-1.43-0.71,2.22.61-.5-0.81,3.91-0.6,1.39-1.84,4.51-2.17,4.87l0.19-.66c0.11-.4.3-0.91,0.47-1.43l0.7-2.08a20.14,20.14,0,0,0-1.38,3.73c-0.35,1.39-.67,2.79-1,3.89l-0.07-.33c-1.84,6.48-1.33,6.7-3,13.72l0.28-.7a26.67,26.67,0,0,1-.64,3.56,19.37,19.37,0,0,0-.64,3.56l-0.6,1.11-0.36,2.57-0.32,3.51-0.36,3.89c-0.13,1.3-.27,2.57-0.31,3.74a47.17,47.17,0,0,1,.27-5.47c0.18-2.11.35-4.32,0.52-6-0.37,2.56-1.09,8.72-1.07,10.07,0.09-1,.16-2.35.35-3.36-0.18,3.17-.24,7.34-0.66,12.46-0.4-.48-0.54,2.87-0.66,6.8s0,8.45-.26,10.32l0.17,3.41,0.28,3.41c0.19,2.28.29,4.59,0.51,6.93l0.82,7.19,0.22,1.86,0.32,1.88,0.69,3.85c-0.08-3.82.56,3.05,1,2.29,0.22,1.21.44,2,.56,2.6a8.13,8.13,0,0,1,.18,1l0.66,3.69,0.46,2.54c0.12,0.7.22,1.15,0.22,1.15,0.16,0.88,0,.32-0.27-0.43a7.18,7.18,0,0,0-.49-1.57c0.28,1.33.46,2.13,0.59,2.63a5.19,5.19,0,0,1,.15.91,8.11,8.11,0,0,0,.37,2.23c0-.77.82,1.73,1.58,4.73l-0.92-4.27c0.6,1.8,1,3.1,1.24,4.15s0.51,1.84.7,2.64a50.12,50.12,0,0,0,2.19,6.77l-1-2.23c1.3,3.7,5.21,13.52,7.34,16.77,0.22,0.66.45,1.57-.3,0,3.87,8.55,10,18.31,13.82,24.46l-0.51-.52c1,1.44,1.83,2.44,3,4.28-0.12-.06-0.53-0.49-0.07.18s2.9,3.63,4.17,5.57l-1.28-1.51a57.53,57.53,0,0,0,3.7,4.93c1.18,1.45,2.28,2.75,3.36,4l7,7.51c-0.17.14,1,1.54,2.43,3.23s3.28,3.7,4.59,4.93l-0.13,0c1.92,1.84,3.7,3.55,5.45,5.12l5.23,4.34c1.68,1.44,3.48,2.68,5.28,4s3.62,2.76,5.68,4.11c1.17,1,2.81,2.23,4.72,3.65s4.23,2.82,6.59,4.37l1.79,1.16c0.61,0.38,1.24.73,1.86,1.09l3.73,2.17c2.43,1.49,4.89,2.72,7.05,3.91-1.3-.76.37-0.19,1.95,0.56,2,1.2,5.89,2.42,5.38,2.66l-0.75-.35a51.76,51.76,0,0,0,9.23,4.3l0.76-.27a58.71,58.71,0,0,0,7.51,3.11l4.2,1.41c0.71,0.23,1.41.47,2.11,0.68l2.12,0.57c2.8,0.73,5.45,1.51,7.74,2.07a50.81,50.81,0,0,1,5.45,1.51c1.16,0.18,2.42.5,3.72,0.68s2.58,0.39,3.73.53l-0.17.26,4.3,0.81c1.31,0.26,2.57.37,3.87,0.56l4.16,0.53,2.42,0.29,2.79,0.19-1.65.08a29.56,29.56,0,0,0,5.08,0c0.7-.05,1.38-0.11,2.15-0.13s1.62,0,2.66,0l1.23,0.45,5.91,0.2,1.48,0.06h1.48l3,0c2,0,3.95,0,5.91-.16s3.91-.36,5.84-0.61a3.64,3.64,0,0,1-1.61.32c3.71-.09,14.29-1.29,12.88-1.67,0.16,0.47,8-1.27,12.15-2.25l-0.59.42a72.48,72.48,0,0,1,8.35-2.49c1.16-.24,1.07,0-0.48.27,3.86-.83,2.9-1.06,7.55-2.2l-1.67.66a25.63,25.63,0,0,0,5.64-2,54.74,54.74,0,0,1,8-2.37,25.43,25.43,0,0,1,4.7-2.16c0.34,0-.45.34-0.85,0.53,1.6-.58,3-1.12,4.22-1.63s2.29-1.09,3.31-1.58c2-1,3.83-1.84,6-2.73a1.65,1.65,0,0,0,.78-0.21c-1.19.64-2.38,1.14-3.43,1.62l-2.79,1.25c-1.56.7-2.46,1.1-2.28,1,0.1,0.24,4.1-1.52,1.08.23l5.87-3.05c2.17-1.19,4.4-2.45,6.32-3.36a4.82,4.82,0,0,1,.54-0.18l-0.38.23c0.88-.43,1.66-0.84,2.37-1.27,1.2-.64,2-1,3.09-1.69a16.8,16.8,0,0,0,2.64-1.36c1.27-.72,2.71-1.57,3.62-2.18-0.3-.14,2.12-1.64-0.25-0.4a9.15,9.15,0,0,1-1.55,1c-0.28.17-.61,0.37-0.79,0.49l0.12-.1-4.68,2.71a37.31,37.31,0,0,1,5.08-3c0.87-.71,1.79-1.56,2.33-2,1.35-.63,3.27-1.68,4.94-2.6s3-1.82,3.45-1.93l4.28-3.16c1.5-1.07,2.92-2.32,4.33-3.44s2.73-2.24,3.88-3.25,2.07-2,2.77-2.8a10.28,10.28,0,0,1,2.33-1.7c-0.79.75-1.77,1.6-2.17,2l2.49-2.25,1.41-1.26,1.34-1.31a28.72,28.72,0,0,0,3.38-3.64c1.78-1.58,1.35-1.06,1.07-.71-0.14.17-.25,0.3,0,0.11a26,26,0,0,0,1.89-1.91l-0.53.72c2.32-2.23,4.36-4.32,6.23-6.39s3.44-4.22,5.13-6.33,3.21-4.39,5-6.72c0.93-1.15,1.79-2.41,2.75-3.7s2-2.63,3.09-4a11.06,11.06,0,0,1-1.08,1.3c0.6-.82,1.22-1.63,1.8-2.47l1.69-2.57c1.12-1.73,2.25-3.45,3.35-5.21l3.09-5.42c0.51-.91,1-1.81,1.53-2.73l1.41-2.79c0.93-1.86,1.89-3.71,2.8-5.58l2.56-5.65c0.42-.94.88-1.86,1.27-2.81l1.16-2.83,2.36-5.59a55.85,55.85,0,0,0,2.22-7.51l0.6-.84s0.09-.28.17-0.72l0.33-1.61,0.48-2.33c0.4-1.64.84-3.14,1.31-4.61l1.27-4.45c0.43-1.51.87-3.08,1.28-4.8s0.65-3.62.91-5.74l-0.39,1c0.27-1.51.72-3.89,1-5.85s0.46-3.48.54-3.21a8,8,0,0,1,.17-2.2l0.17-.07s0.19-1.87.32-3.75l0.15-3.76c0.28-2.9.42-2.66,0.57-2.76a1.27,1.27,0,0,0,.26-0.83,27.44,27.44,0,0,0,.3-4c0-3.18-.23-9-0.37-7.84a14.74,14.74,0,0,1-.34,3.35v-2.89c-0.45-.53-0.88-2.72-1.38,4.31l0.16,4.92-0.35,1.56,0-.64c0-.39.08-0.9,0.08-1.42l0-2.06a47.3,47.3,0,0,0-.18,5.49,9.54,9.54,0,0,0-.4,2l0.07,4.84c-0.25.56-.13-2.18-0.59,1-0.08,2.26.68-2.11,0.34,1.62a15.92,15.92,0,0,0-.76,4.36c-0.17.37-.17-0.22-0.08-1.31-0.1,1.22-.24,2.84-0.46,4.3a26.73,26.73,0,0,0-.41,3.41c-0.34,1.18-.69,3.22-1,4.93s-0.73,3-.9,2.89c-0.07.77-.63,4.29-1.12,6.49,0.19-2.07-.22,0-1,2.37s-1.49,5.14-1.61,4.53a19.28,19.28,0,0,1-.65,3c-0.36,1.2-.8,2.58-1.28,4s-1,3-1.47,4.43-1.07,2.87-1.51,4.14a8.53,8.53,0,0,1,.42-1.31c-1.15,2.81-1.61,3.58-2.4,5.36,0.2,0.51-1.67,4.85-2.5,7.29-1.88,3.23.52-2.26-.3-1.34,0.18,0-.4,1.49-1,2.86s-1.17,2.58-.76,2.07a19.81,19.81,0,0,1-2.18,3.29c0.19,0.67-1.09,2.42-2,4.59-2.26,3.45-.93.69-3.05,4.69C619.35,381.2,621.2,377.63,621.2,377.63Zm-76.38,73.72h0l2-1Zm-8.14,4c1-.45,2.27-1,3.58-1.62,0.32-.07.07,0.21-0.76,0.57A22.06,22.06,0,0,0,536.68,455.33Zm18-7.17a8.79,8.79,0,0,1-1.89,1l2.18-1.29,0.13-.11A2.28,2.28,0,0,1,554.66,448.16Z" transform="translate(-243.2 -67.93)"/><path class="cls-1" d="M556.73,446.55l0.5-.33c-0.26.14-.52,0.26-0.77,0.39l-0.4.33Z" transform="translate(-243.2 -67.93)"/><path class="cls-1" d="M569.52,126.64l-0.15-.12c0.12,0.1.24,0.2,0.31,0.27Z" transform="translate(-243.2 -67.93)"/><polygon class="cls-1" points="171.34 399.28 171.34 399.35 172.13 399.47 171.34 399.28"/><path class="cls-1" d="M605.21,161.59a4,4,0,0,0,.35.56A5.18,5.18,0,0,0,605.21,161.59Z" transform="translate(-243.2 -67.93)"/><path class="cls-1" d="M617.8,179.1l1.56,2.62Z" transform="translate(-243.2 -67.93)"/><path class="cls-1" d="M626,193.48a0.9,0.9,0,0,0,.25.23v0Z" transform="translate(-243.2 -67.93)"/><path class="cls-1" d="M401.88,100.08l-0.61.19C399.85,100.75,400.81,100.43,401.88,100.08Z" transform="translate(-243.2 -67.93)"/><path class="cls-1" d="M479.38,92.5c-0.83-.05-1.65-0.11-2.52-0.19A7.14,7.14,0,0,0,479.38,92.5Z" transform="translate(-243.2 -67.93)"/><path class="cls-1" d="M327.19,143.86h0l-0.39.37Z" transform="translate(-243.2 -67.93)"/><path class="cls-1" d="M473.23,92c1.39,0.16,2.55.24,3.64,0.28C475.72,92.2,474.38,92.07,473.23,92Z" transform="translate(-243.2 -67.93)"/><path class="cls-1" d="M646.68,261.81l0.09,0.79s0,0,.05.09Z" transform="translate(-243.2 -67.93)"/><path class="cls-1" d="M646.82,262.69l0.1,0.88A6,6,0,0,0,646.82,262.69Z" transform="translate(-243.2 -67.93)"/><path class="cls-1" d="M647.14,265.43l-0.21-1.85A12.9,12.9,0,0,0,647.14,265.43Z" transform="translate(-243.2 -67.93)"/><path class="cls-1" d="M643.22,240.16l-0.16-.22A0.36,0.36,0,0,0,643.22,240.16Z" transform="translate(-243.2 -67.93)"/><path class="cls-1" d="M641.65,233.68c0.41,1.54.71,3.93,1.29,6.07l0.13,0.18C642.66,239,642.23,235.09,641.65,233.68Z" transform="translate(-243.2 -67.93)"/><path class="cls-1" d="M633.81,206.88s0.15,0.32.34,0.81l0.68,1.81,1,2.63c-0.26-1-.6-2.21.36,0.16C633.87,205.57,636.53,213.73,633.81,206.88Z" transform="translate(-243.2 -67.93)"/><path class="cls-1" d="M626.38,191.1c1.42,2.67.12-.11,0.25,0a10.16,10.16,0,0,0-.88-1.38A10.15,10.15,0,0,0,626.38,191.1Z" transform="translate(-243.2 -67.93)"/><path class="cls-1" d="M535.61,106.82l0.38-.11C533.85,105.78,535.93,106.79,535.61,106.82Z" transform="translate(-243.2 -67.93)"/><path class="cls-1" d="M512.67,99.63l1.06,0.38c0.53,0.19,1,.42,1,0.42l1.09,0.12-1.59-.5C513.48,99.83,512.67,99.63,512.67,99.63Z" transform="translate(-243.2 -67.93)"/><polygon class="cls-1" points="256.18 26.36 257.18 26.55 253.36 25.77 256.18 26.36"/><path class="cls-1" d="M308.68,160l0.34-.18,0.35-.17C310.37,158.42,310.3,157.93,308.68,160Z" transform="translate(-243.2 -67.93)"/><path class="cls-1" d="M269.55,241.81a20.46,20.46,0,0,0-1.09,5C268.84,244.82,269.32,242.83,269.55,241.81Z" transform="translate(-243.2 -67.93)"/><path class="cls-1" d="M390.67,462.77l-1.75-.58,1.63,0.6c0.41,0.16.82,0.29,1.13,0.38l0.52,0.16-0.77-.27C391,462.94,390.67,462.77,390.67,462.77Z" transform="translate(-243.2 -67.93)"/><path class="cls-1" d="M621.35,281.16c0.08,0.55.29,0.24,0.21-1.28l-0.36-1.07Z" transform="translate(-243.2 -67.93)"/><path class="cls-1" d="M621.62,271c-0.3-1.77-.73-3.8-0.95-2.62,0.45,1.73.35,2.17,0.87,4,0.1,1.51,0,2.65-.16,2.4a30.15,30.15,0,0,0,.22,3.17,27.49,27.49,0,0,0,.12-3.31c0-.6,0-1.22-0.08-1.85s-0.16-1.27-.25-1.92S621.55,270.83,621.62,271Z" transform="translate(-243.2 -67.93)"/><path class="cls-1" d="M552.25,145.06l0.76,0.59C552.81,145.48,552.55,145.28,552.25,145.06Z" transform="translate(-243.2 -67.93)"/><path class="cls-1" d="M466.5,114.32a4.06,4.06,0,0,0,1,0A3.77,3.77,0,0,0,466.5,114.32Z" transform="translate(-243.2 -67.93)"/><path class="cls-1" d="M450.74,113.67h0.93A5.49,5.49,0,0,0,450.74,113.67Z" transform="translate(-243.2 -67.93)"/><path class="cls-1" d="M552.25,145.06l-1.95-1.51A11.89,11.89,0,0,0,552.25,145.06Z" transform="translate(-243.2 -67.93)"/><path class="cls-1" d="M618.34,250.8c0.11,0.5.21,0.91,0.32,1.29l-0.25-1.22Z" transform="translate(-243.2 -67.93)"/><path class="cls-1" d="M582.39,172.24l0.49,0.57c0.17,0.14.34,0.27,0.51,0.38Z" transform="translate(-243.2 -67.93)"/><path class="cls-1" d="M600.47,197.68a2,2,0,0,0-.95-0.86,6.59,6.59,0,0,1,.93,1.24C600.51,198,600.52,197.93,600.47,197.68Z" transform="translate(-243.2 -67.93)"/><path class="cls-1" d="M618,243.76l0.23,0.85Z" transform="translate(-243.2 -67.93)"/><path class="cls-1" d="M566.79,156.23a0.72,0.72,0,0,0-.15-0.26A0.43,0.43,0,0,0,566.79,156.23Z" transform="translate(-243.2 -67.93)"/><path class="cls-1" d="M616.83,316.67s0,0,0,0C616.89,316.49,616.89,316.44,616.83,316.67Z" transform="translate(-243.2 -67.93)"/><path class="cls-1" d="M622.09,281.16v0.5a0.28,0.28,0,0,0,.15.11Z" transform="translate(-243.2 -67.93)"/><path class="cls-1" d="M422,116.53l0.13,0C422.84,116.34,422.42,116.43,422,116.53Z" transform="translate(-243.2 -67.93)"/><path class="cls-1" d="M291.45,316.66c-0.43-3,1.41,4.69.67,0.23C292.11,317.33,290.76,313,291.45,316.66Z" transform="translate(-243.2 -67.93)"/><path class="cls-1" d="M618.24,250L618,248.76C618.1,249.33,618.17,249.71,618.24,250Z" transform="translate(-243.2 -67.93)"/><path class="cls-1" d="M292.12,316.89h0l-0.08-.46Z" transform="translate(-243.2 -67.93)"/><path class="cls-1" d="M361,142.46a4,4,0,0,0,.62-0.29A2.07,2.07,0,0,0,361,142.46Z" transform="translate(-243.2 -67.93)"/><path class="cls-1" d="M405.65,121.28l-1.17.36C404.94,121.5,405.32,121.39,405.65,121.28Z" transform="translate(-243.2 -67.93)"/><path class="cls-1" d="M341.13,158.88a17.24,17.24,0,0,0-1.32,1.23l0.22-.17A8.63,8.63,0,0,1,341.13,158.88Z" transform="translate(-243.2 -67.93)"/><path class="cls-1" d="M323.11,178.66l0.35-.35,0.51-.68Z" transform="translate(-243.2 -67.93)"/><path class="cls-1" d="M581.61,388.06a7.59,7.59,0,0,1,1-.76C582.18,387.48,584.67,384.49,581.61,388.06Z" transform="translate(-243.2 -67.93)"/><path class="cls-1" d="M618.49,250.76a2.17,2.17,0,0,1-.26-0.75l0.17,0.87C618.46,250.94,618.5,251,618.49,250.76Z" transform="translate(-243.2 -67.93)"/><path class="cls-1" d="M341.87,161.24l-3.07,2.87C339.67,163.32,340.78,162.28,341.87,161.24Z" transform="translate(-243.2 -67.93)"/><path class="cls-1" d="M409.68,440.16l0.94,0.23A7.25,7.25,0,0,0,409.68,440.16Z" transform="translate(-243.2 -67.93)"/><path class="cls-1" d="M330.37,173.29c-0.57.5-1.13,1.07-1.7,1.66a4.26,4.26,0,0,0-.26.42Z" transform="translate(-243.2 -67.93)"/><path class="cls-1" d="M582.61,387.29h0Z" transform="translate(-243.2 -67.93)"/><path class="cls-1" d="M597.94,364.27c-2,3.46-.63,1.81-0.87,2.66-2.49,4.09-1.42,1.72-2.46,3-0.76,1.28-1.38,2.45-2,3.53s-1.21,2-1.86,2.93c-0.15.1-.42,0.44-0.18,0-0.4.69-.94,1.51-1.55,2.4l-1,1.39L587,381.57c-1.49,1.9-3,3.88-4,5.41a2.17,2.17,0,0,1-.39.31c0.53-.33.74-0.28,0.76-0.1a20.75,20.75,0,0,1-2.64,3,6.71,6.71,0,0,0,1-1.4l-1.16,1.5c-1.37,1.06,1.6-2,1.4-2.19l-3.57,4.47c-1.23,1.43-2.44,2.74-3.44,3.73-0.65.19,4.47-4.85,1.65-2.34l1.55-1.54,1.48-1.6c-2.58,2.16,1.76-2-.67,0l-1.28,1.44-1.08,1.14-1.72,1.89a51.31,51.31,0,0,1-4.22,4.33c-0.8,1,.5-0.09-0.3.93-1.41,1.47-2.45,2.44-3.27,3.14a19.59,19.59,0,0,1-2,1.44,19.35,19.35,0,0,0-4.17,3.4,18.6,18.6,0,0,1-4.75,4.3l0.91-1.2a38.41,38.41,0,0,0-3.34,2.86,23.21,23.21,0,0,1-3.7,2.71c0.76-.72,3.48-2.63,2.77-2.18-3.24,1.93-2,1.72-4.41,3.4l-0.34,0-0.35,0-3.78,2.5c-1.29.85-2.57,1.77-3.94,2.57-2.73,1.64-5.48,3.41-8.42,4.87,0.28-.26,1.22-0.86-0.19-0.25l-2.77,1.47-1.42.74-1.47.67c-2,.89-4,1.79-6,2.65l-6.07,2.27c-1,.39-2,0.71-3,1l-2.9.9L505,439.11c-0.67.22-1.3,0.24-.58,0-3,.74-0.1.22-1.5,0.74-1.69.5-2.29,0.47-1.24,0.08a105.76,105.76,0,0,1-20.77,4.87l1.09-.28-2.71.45c-0.74.14-1.35,0.29-1.95,0.43a23.07,23.07,0,0,1-4.45.67l0.79-.15c-4.86.42-10,.86-14.83,0.9-1.21,0-2.4.07-3.57,0.07l-3.41-.13-3.2-.16a29,29,0,0,1-2.93-.27,33.72,33.72,0,0,1-5.43-.27l-1.68-.14-1.47-.16a3.91,3.91,0,0,0-1.69,0c-2.75-.5-3.72-0.72-5-1s-2.77-.65-6.6-1.43c-2.06-.36-3.12-0.27-5.67-0.78v-0.31l-3.5-.48s-0.44-.18-0.86-0.4L413,441l-2.35-.59a5.07,5.07,0,0,1,1.78.74c-1.84-.45-4.06-1.13-5.81-1.73a17.55,17.55,0,0,1-3-1.31l-4.29-1.31c-1.08-.31-2.11-0.74-2.91-1l-1.32-.48a20.37,20.37,0,0,1,2.77.83c-4.56-1.46-.69-0.62-4.87-2,0.52,0.28-.36.05-0.48,0.07l-4.4-2.07c-1.78-.85-3.8-1.65-5.44-2.48l0.72,0.13-4.54-2.33c-0.77-.4-1.57-0.78-2.35-1.2L374.13,425c-1.56-.89-3.17-1.76-4.76-2.7l-4.7-3c2.2,1.53,1.48,1.51-.38.35l-0.56-.74c-1.3-.6,1.86,1.34-0.72,0-2.28-1.62-1.33-1.38,0-.54l-2.83-1.87c-0.11-.19.57,0.22,0.81,0.24-1.24-.66-4.6-3.6-6.34-4.62l-0.09-.19-3.89-3c-1.14-.92-2.12-1.79-3.09-2.6l-2.88-2.44c-1-.84-1.93-1.79-3-2.83-0.28.12-2-1.56-3.43-2.65l-4.74-5.24c-1.63-1.85-3.24-3.88-5-5.89-2.53-2.82-.89-0.7-2.09-1.92,0-.38-3.31-4.59-1.45-2.51-2-2.5-3.22-4.19-4.57-6l-2.23-3-2.86-4.23c0.39,0.8.89,1.67,0.54,1.28a9.87,9.87,0,0,1-1.51-2.79l0.23,0.32a92.93,92.93,0,0,1-7.14-13.12c-1.13-2.27-2-4.58-2.95-6.67-0.46-1-.92-2.05-1.37-3s-0.8-1.86-1.2-2.69l0.17,0.37-1.52-3.47c-0.38-.87-0.77-1.73-1-2.4l-0.42-1.11c-1.08-3.32.85,1.92,0.17-.58-0.75-1.9-1.39-3.61-2-5.22s-0.9-3.14-1.3-4.61c-0.86-2.93-1.41-5.74-2.31-9-0.05-.65-0.16-1.43-0.31-2.29s-0.24-1.83-.41-2.86l-0.56-3.26c-0.21-1.13-.44-2.31-0.58-3.51-0.32-2.4-.69-4.85-0.94-7.15s-0.29-4.45-.31-6.2l-0.15.42a12.78,12.78,0,0,1-.06-3.53c-0.13.2-.11,2-0.24,0.85-0.11-3.84-.37-7.75-0.16-11.7,0.08-2,.07-4,0.24-5.94l0.53-6,0.14-1.49,0.21-1.48,0.42-3c0.28-2,.54-4,1-5.91L293.7,248l1.4-5.76a27.32,27.32,0,0,0,.79-4.65,22.76,22.76,0,0,1,1.49-5.64L297.13,234c2.92-11.28,8-22.42,13.24-32.52a14.94,14.94,0,0,1-.71,1.67c1.34-2,4.42-7.71,4.26-7.86,1-1.48.37-.25,1-1.12,1.44-1.94,3-5.29,3.94-6.19a5,5,0,0,1-.56,1c0.8-1.36,4.26-6,3.16-4.89,1.26-1.73,2.53-3.33,3.7-4.88a47.34,47.34,0,0,1,3.46-4.24c1.24-1.87,4.87-5.47,5.09-6.22,0.14,0.54,5.38-5.23,7.28-7.16-0.56.72,1.8-1.52,1.16-.65,2.19-2.17,4.32-4,3.75-3.86,2.33-1.65,4.38-3.65,6.37-5.25s3.63-3.13,5.16-3.75l5.41-4.05,5.43-3.65c0.88-.61,1.79-1.17,2.71-1.71l2.72-1.63,2.7-1.6L379.2,134a3.86,3.86,0,0,1-1.28.89c-0.76.41-1.75,0.94-2.69,1.51-1.9,1.11-3.73,2.18-3.45,2.29l4.55-2.81c1.42-.83,2.77-1.57,4.12-2.32s2.67-1.54,4.17-2.21,3.07-1.42,4.85-2.19-1,.65-1.55,1l2.63-1.25c0.87-.41,1.77-0.73,2.64-1.09l5.2-2.06,5.14-1.76,2.51-.89,2.5-.79a10,10,0,0,1-1.39.52c1.32-.39,3.09-0.81,2.88-1l-1.27.42c-2.2.32,5.08-2.1,5.29-2.3-2.13,1.09,6.76-1.41,3.32.15,0.87-.24,2-0.59,1.72-0.68,1.32-.26,1.75-0.28.46,0.18l3.85-1a33.74,33.74,0,0,1,3.56-.76,9.7,9.7,0,0,1-1.31.49,42,42,0,0,1,8.14-1.57c-0.22.09,0.23,0.11-.89,0.25,3.21-.42,5.92-0.94,8.75-1.2,1.41-.16,2.84-0.31,4.37-0.45s3.15-.12,4.92-0.14c-2.08.48,2.42,0.08,2.8,0.44,0,0,1-.06,1.91-0.09h1.91l-1.53-.22c1.67,0,3.25,0,4.77,0a31.69,31.69,0,0,1,4.41.15l-1.24,0-1.25,0h1c0.59,0,1.37.08,2.15,0.13l3.13,0.2-3.53-.41c3.39,0.07-.33-0.5,4.11-0.06a47.21,47.21,0,0,1,5.05.72h0a48.53,48.53,0,0,1,5.82.59c0.62,0.2-.58.34-0.17,0.47a33.62,33.62,0,0,1,4.75.62c2,0.34,4,.64,5.07.75-0.69-.08-0.76.1-0.55,0.2l1.39,0.06c1.5,0.43,1.71.52,1.43,0.61,4.53,1.09-1.34-.79,4,0.65-0.43-.08-0.24,0-1.13-0.16,5.37,1.45,10.42,2.67,15.21,4.5,1.3,0.84-4.26-1.34-2.73-.49A142.16,142.16,0,0,1,528.54,132l-1.17-.64c1.11,0,4.63,2.62,7.92,4.11-0.78-.41-1.15-0.3-0.91-0.25,2.1,1.24,4.27,2.46,6.74,3.81,1.22,0.7,2.47,1.49,3.84,2.31s2.86,1.66,4.38,2.72l-0.82-.42c2.25,1.8,6.19,4.37,8.54,6.42,0.81,0.46,2.19,1.58,1.47.76l5.25,4.69c1.73,1.51,3.49,2.92,5.11,4.44s3.31,2.91,4.81,4.47,2.94,3.14,4.29,4.79c-0.7-.73-1.76-1.67-1.2-1.09l0.79,0.81c0.49,0.47,1.09,1.15,1.69,1.82l2.42,2.7a11.07,11.07,0,0,0-1.38-2.08,41.06,41.06,0,0,1,3.31,3.45c-2.27-2.36-.23.23,0.52,1.43-0.09-.23.27,0.1,0.25,0,2,3.24.76,0.21,3.74,4.45l-0.27-.14c0.64,0.73,1.23,1.45,1.81,2.2s1.17,1.52,1.77,2.38c0.28,0.86-1.3-1.61-1.55-1.59,1.7,2.38,3.82,4.4,5,6.82-0.73-1-1.69-2.53-2.5-3.48l1.46,2.59,1.26,2-0.11-.18,1.28,2.12,0.88,1.46c0.24,0.4.38,0.68,0.38,0.68l-0.28-.57-0.3-.55a26.37,26.37,0,0,1,3.21,4.75l1.59,2.75c0.52,1,1.1,2,1.77,3-2.58-4.08-.58-0.59-1-0.78,0.5,1.16,1.29,2.91,1,2.46a19.62,19.62,0,0,1,1.5,2.86,26.36,26.36,0,0,0,1.74,3.55c0,0.17,1,2.28.58,1.89,1.32,2.73-.14-0.72.08-0.54,2.23,4.14,3.8,10.3,6.31,16.53,1,2.74,1.5,4.37,2.09,5.94l0.89,2.46c0.28,0.91.57,2,.91,3.26,0.26,1.81-.68-1.37-0.68-1.37,0.26,1.45.52,2.71,0.81,3.94s0.63,2.43.9,3.79c-0.18-.54-0.15,0-0.11.9,0.41,2.18.61,1.4,1,4.3a16.65,16.65,0,0,1-.78-2.11l0.86,3.82,0.68,3.93c-0.08.73-.46-1.59-0.69-2.51,0.45,3,1.18,7.78,1.44,8.7l-0.06-2c0.1,1.11-.17.59-0.31-0.22a9.4,9.4,0,0,1-.3-3.9l0.31,1.91a20.36,20.36,0,0,0-.47-5.09c-0.37-2.15-1-4.48-1.33-6.4l0.69,1.52-1-3.86a1.69,1.69,0,0,1,.06-0.82,1.94,1.94,0,0,1,.42,1.22c-0.34-2.78-.68-2.38-1-4.77,0-.27,0-0.15.09,0.08l-0.73-2.63c0.21,0.5.18-.51,0.5,1.14-0.23-1.21-.44-2.3-0.71-3.26s-0.57-1.81-.82-2.57a19.71,19.71,0,0,1-1-3.6l0.14,0.39a22.64,22.64,0,0,0-1-2.88c-0.19-.42-0.24-0.44-0.28-0.4s-0.12.36-1.11-2l-0.39-3.5-0.5-.53c-0.23-.66-0.73-2-0.52-1.76-1.15-2.35,0,.46-0.7-0.88-0.5-1.61-1.34-3.78-2.14-5.61a14.35,14.35,0,0,1-1.44-3.8c-0.71-1,1.17,3-.46-0.2a7.18,7.18,0,0,0-1-2.68,39.3,39.3,0,0,1-2-3.9c0.67,0.72,1.88,3.39.68,0.53a16.7,16.7,0,0,1-2-3.53c-0.68-1.45-1.46-2.95-2.13-4.06-0.19,0-.93-1.17-1.9-2.85s-2.36-3.74-3.57-5.55c0.32,0.13-4.42-6.93-6.84-10.2l0.12,0.06a12.63,12.63,0,0,1-2.19-2.31c-1-1.18-2.08-2.61-3.14-3.71,0.24,0,.68.3,1.82,1.51l-0.28-.35-0.65-.75-0.94-1.09a24.4,24.4,0,0,1-2.42-2.45l0.68,0.36c-0.63-.72-1.27-1.43-1.94-2.15l-2.14-2.11c-0.73-.73-1.48-1.48-2.25-2.29l-1.17-1.25-1.27-1.27c-0.38,0,2.32,3.2-1.55-.25,0-.23,0-0.54,1,0.36a23,23,0,0,1-1.83-1.67l1.66,1.26c-1.55-1.62-1-.67-2.26-1.91,0.16-.12-0.86-1-0.57-1,0.34,0.3,1.07,1.14,1.62,1.55-1.43-1.43-3.12-3.19-3.66-3.8,0.06,0.2-.18.2-1.31-0.75-2.9-2.49-.83-1-2.45-2.57-0.76-.53-2.6-2.14-2.84-1.95a5.94,5.94,0,0,1-1.25-1.26c-0.83-.55-2.62-2-4.09-3s-2.53-1.69-1.71-.92l0.4,0.31-0.27-.18h0c-1.36-.88-2.72-1.81-4.08-2.78s-2.79-1.84-4.18-2.78a94.78,94.78,0,0,0-8.47-5.16l0.06-.08c-1.67-.95-3.61-1.84-5.39-2.74a45,45,0,0,0-4.76-2.16c-1-.47-2.36-1.27-1.87-1.17-2.72-1.11-3-1.26-6.9-2.93,2.81,0.92-.89-0.52,2.86,1a64.09,64.09,0,0,0-8.18-3.17c1.41,0.21-2.62-1.22-4.36-1.73l2.48,1c-1.94-.62-3.63-1.21-5.34-1.81h1a50.84,50.84,0,0,0-5.35-1.65c-1.73-.44-3.38-0.89-5-1.15s-3.18-.6-4.69-0.95l-2.23-.55c-0.74-.17-1.46-0.36-2.18-0.57-2.08-.13,4.15.91,2.27,0.85-3.52-.67-7.13-1.82-8.25-2a28,28,0,0,0-4.78-.45c-0.59,0-1.19,0-2-.07l-3-.27c0.65,0.17,1.23.53-2.6,0.35-3.57-.32-4.37-0.83-2.1-0.75a3.73,3.73,0,0,1,1.23.16c1.16,0,2.69.11,1.28-.13l-0.47.08c-0.89-.13-2.56-0.28-3.87-0.42s-2.26-.15-1.67-0.24c-2.73,0-1.17.16,0.84,0.28-2.3-.14-4.11-0.19-5.93-0.23-0.91,0-1.82-.06-2.81,0l-3.23,0c0.76,0,1.45.17,0.7,0.19a29.7,29.7,0,0,0-4.73.18,21.14,21.14,0,0,1-3,.4c-2.68,0,.93-0.5-3.8,0-2.9.1-.64-0.27,0.5-0.45-1.08.14-2.12,0.23-3.12,0.31s-1.94.22-2.84,0.29c-1.79.16-3.35,0.25-4.59,0.38l2.26-.38c-1.35.24-2.47,0.35-3.59,0.53,0,0,.33,0,0.66,0l0.67,0a18.45,18.45,0,0,1-2.44.25c-1.34.4,1.1,0.2-1.56,0.9-1.78.21-5.33,1-6,.93,5.54-1-.68-0.22,4-1.13-0.9.2-2,.39-3.33,0.6-0.2,0,.17-0.11.53-0.19-5.32.9-2.34,0.89-7.78,2.13,0.64-.34-1.34,0-2.2.28,2.17-.61,1.11,0-0.84.69-3.47.84-3.71,1.16-5.51,1.65l2.07-.52a10.34,10.34,0,0,1-1.72.65c-0.8.26-1.81,0.64-3,1.05-0.24-.06,2.11-0.81,1.25-0.59-2.5,1.21-6.05,1.6-9.54,3.28-1.7.54-.28-0.25-1.77,0.25-2,.9-3.09,1.26-4.2,1.72a42,42,0,0,0-4.3,1.9c1.3-.32,1.48-0.47-1.34,1.06l6.73-3.23-4.22,2.29c2.06-.9,4.25-2.14,5.53-2.57-2,1-1.82.94-.77,0.66a29.24,29.24,0,0,0-4.26,1.86c-1.41.73-2.9,1.42-4.52,2.15l-0.16-.58a66.21,66.21,0,0,0-6.77,3.56l-3.48,2.14c-1.24.76-2.62,1.5-4.08,2.44l1-.56c0.48-.29,1-0.54,1-0.54-0.69.66-3.6,2.33-5.45,3.62,0.07-.28-1.16.42-2,0.84,0.18,0.05-4.16,2.94-4.45,3.63l-1.34.79c-0.68.38-1.32,0.83-1.32,0.83-4.48,3.4-4.74,4.34-8.82,7.84,1.09-1.23-.86.28,1.78-2.21a17.94,17.94,0,0,0-2.55,2.34,24.57,24.57,0,0,0-2.29,2.09,27.77,27.77,0,0,1-2.56,2.46,12.86,12.86,0,0,1-2,2.29c-0.19.12-.06-0.07-0.06-0.07s-0.53.6-.89,1-0.55.74,0.13,0.18c-4.32,3.53-10.54,11.33-13.76,14.92l-1.86,2.44c-0.63.84-1.22,1.74-1.83,2.61-1.2,1.75-2.42,3.43-3.39,4.92a1,1,0,0,1,.31-0.62c-2.8,4.05-1.18,2.84-4.32,7.46-0.85,1.16-.52.49-0.09-0.28s1-1.6.46-.89c-0.51.14-1.31,1.64-2.3,3.45s-2.16,3.95-3.15,5.56l0.38-.83a112,112,0,0,0-5,10.64s0-.23-0.08-0.07c-0.52,1.53-1.4,3.69-2.19,6.05s-1.83,4.8-2.45,7c0.21-1.42.53-2,0-1.26-0.62,1.93.58-.42-0.65,3.43a39.67,39.67,0,0,1-2,4.22s0.25-.92.57-1.82l0.61-1.81a15.57,15.57,0,0,0-1.22,3.24c-0.3,1.21-.57,2.43-0.88,3.4l-0.08-.29c-1.6,5.65-1.1,5.85-2.57,12l0.26-.61a18.93,18.93,0,0,1-.55,3.11,14.71,14.71,0,0,0-.56,3.1l-0.57,1-0.3,2.24-0.26,3.06-0.3,3.39c-0.11,1.13-.23,2.24-0.26,3.26a38.39,38.39,0,0,1,.19-4.77l0.42-5.24c-0.32,2.23-.95,7.6-0.91,8.78a28.72,28.72,0,0,1,.3-2.93c-0.12,2.77-.15,6.4-0.52,10.86-0.4-.42-0.53,2.5-0.64,5.93s0,7.36-.27,9l0.16,3,0.25,3c0.17,2,.25,4,0.44,6l0.7,6.27,0.19,1.62,0.28,1.64,0.6,3.36c0-3.34.49,2.66,1,2,0.42,2.11.67,2.89,0.65,3.09l0.56,3.22,0.38,2.22c0.1,0.61.19,1,.19,1,0.13,0.77-.05.28-0.26-0.37a5.48,5.48,0,0,0-.44-1.37,25.14,25.14,0,0,1,.63,3.1,6.22,6.22,0,0,0,.29,2c0-.68.75,1.5,1.41,4.12L294.11,327c0.53,1.57.86,2.7,1.09,3.62s0.43,1.61.6,2.31a38.1,38.1,0,0,0,1.9,5.91l-0.86-1.93c1.14,3.22,4.54,11.79,6.46,14.59,0.18,0.58.36,1.38-.3,0,3.37,7.46,8.74,15.93,12.07,21.31l-0.46-.44c0.88,1.25,1.62,2.1,2.63,3.72-0.11,0-.48-0.42-0.08.16s2.56,3.14,3.66,4.84l-1.13-1.31a47.66,47.66,0,0,0,3.23,4.3c1,1.26,2,2.39,2.94,3.48,2,2.11,3.89,4.07,6.15,6.51-0.17.14,0.8,1.37,2.08,2.85s2.84,3.24,4,4.32l-0.12,0c1.67,1.61,3.23,3.09,4.75,4.46l4.57,3.77c1.47,1.25,3,2.33,4.62,3.5s3.17,2.4,5,3.57c1,0.87,2.43,2,4.1,3.21s3.68,2.47,5.74,3.82l1.56,1c0.53,0.33,1.08.63,1.62,1l3.25,1.89c2.12,1.3,4.26,2.38,6.14,3.42-1.13-.67.35-0.21,1.72,0.45,1.72,1.06,5.15,2.08,4.68,2.33l-0.65-.3a41.08,41.08,0,0,0,8,3.79l0.69-.3a47.66,47.66,0,0,0,6.53,2.75l3.66,1.23c0.62,0.2,1.23.41,1.84,0.59l1.85,0.49c2.44,0.63,4.75,1.31,6.75,1.8a38.65,38.65,0,0,1,4.75,1.35c1,0.15,2.12.42,3.24,0.58s2.25,0.34,3.25.45l-0.16.26,3.75,0.72c1.15,0.23,2.24.33,3.37,0.49l3.63,0.46,2.11,0.25,2.43,0.16-1.44.09c3.93,0.29,5-.38,8.63-0.24L449,448.7l5.15,0.18,1.29,0.05h1.29l2.58,0c1.72,0,3.44,0,5.15-.14s3.4-.33,5.09-0.55a2.81,2.81,0,0,1-1.4.31c3.23-.08,12.46-1.09,11.22-1.5,0.15,0.46,7-1.1,10.58-2l-0.5.4a55.2,55.2,0,0,1,7.26-2.24c1-.21.94,0-0.42,0.25,3.37-.7,2.52-1,6.57-1.94l-1.45.6a20.24,20.24,0,0,0,4.91-1.75,41.23,41.23,0,0,1,7-2,19.37,19.37,0,0,1,4.08-1.92c0.3,0-.39.32-0.73,0.49,1.39-.5,2.6-1,3.67-1.41s2-1,2.88-1.38c1.76-.89,3.33-1.62,5.22-2.38a1.29,1.29,0,0,0,.68-0.16c-4.24,2-7.74,3.51-7.41,3.37,0.1,0.24,3.59-1.29,1,.28l5.09-2.7c1.88-1,3.82-2.16,5.5-2.94a3.71,3.71,0,0,1,.48-0.14l-0.33.2a22.25,22.25,0,0,0,2.06-1.11c1-.55,1.71-0.9,2.7-1.46a12.79,12.79,0,0,0,2.31-1.17c1.11-.63,2.36-1.37,3.15-1.9-0.28-.15,1.83-1.46-0.25-0.4a7.08,7.08,0,0,1-1.34.9c-0.24.15-.53,0.32-0.69,0.43l0.1-.09-4.07,2.36a28.35,28.35,0,0,1,4.42-2.66c0.75-.64,1.53-1.4,2-1.79,1.19-.53,2.87-1.43,4.34-2.21s2.67-1.56,3-1.65l3.72-2.76c1.31-.93,2.54-2,3.77-3s2.37-2,3.37-2.85,1.79-1.77,2.39-2.46a7.86,7.86,0,0,1,2-1.46c-0.68.66-1.54,1.39-1.88,1.79,0.6-.56,1.36-1.25,2.16-2l1.23-1.1,1.16-1.15a21.86,21.86,0,0,0,2.92-3.2c1.56-1.37,1.2-.91,1-0.6-0.12.15-.21,0.27,0,0.1a21.74,21.74,0,0,0,1.65-1.67l-0.45.64c2-1.93,3.81-3.75,5.44-5.55s3-3.69,4.44-5.54,2.78-3.85,4.36-5.88c0.81-1,1.56-2.1,2.4-3.22s1.73-2.28,2.71-3.49a8.43,8.43,0,0,1-1,1.12c0.53-.71,1.07-1.42,1.58-2.14l1.47-2.24c1-1.5,2-3,2.92-4.54l2.69-4.72c0.44-.79.91-1.57,1.33-2.38l1.22-2.43c0.81-1.63,1.65-3.23,2.43-4.86l2.23-4.93c0.37-.82.76-1.62,1.11-2.44l1-2.47,2.07-4.86a42.44,42.44,0,0,0,1.89-6.56l0.56-.72s0.07-.25.14-0.63l0.27-1.4,0.4-2c0.34-1.43.73-2.74,1.14-4l1.13-3.87c0.38-1.32.77-2.68,1.14-4.18s0.57-3.16.78-5l-0.37.91c0.24-1.31.63-3.39,0.86-5.09s0.4-3,.49-2.79a6.09,6.09,0,0,1,.14-1.92l0.17-.06s0.15-1.63.26-3.27l0.11-3.28c0.25-2.53.39-2.32,0.54-2.4a1,1,0,0,0,.25-0.72,22.38,22.38,0,0,0,.28-3.45c0-2.77-.26-7.87-0.39-6.83a11.24,11.24,0,0,1-.33,2.92l0-2.51c-0.46-.46-0.88-2.37-1.36,3.75l0.18,4.28-0.33,1.36,0-.56c0-.34.07-0.78,0.07-1.23l0-1.8a32.93,32.93,0,0,0-.15,4.78,7.29,7.29,0,0,0-.38,1.77l0.12,4.22c-0.24.48-.16-1.9-0.58,0.88,0,2,.64-1.83.37,1.42a12.09,12.09,0,0,0-.69,3.79c-0.16.32-.17-0.2-0.11-1.15-0.08,1.07-.2,2.47-0.39,3.74a20.28,20.28,0,0,0-.34,3c-0.32,1-.62,2.8-0.89,4.29s-0.64,2.65-.82,2.5c0,0.67-.51,3.74-0.93,5.66,0.13-1.81-.23,0-0.87,2.05s-1.3,4.47-1.44,3.93a15.28,15.28,0,0,1-.54,2.64c-0.31,1.05-.69,2.25-1.1,3.51l-1.28,3.86c-0.48,1.26-.93,2.5-1.3,3.61a6.49,6.49,0,0,1,.35-1.14c-1,2.44-1.42,3.1-2.12,4.65,0.22,0.46-1.39,4.25-2.09,6.38-1.68,2.79.39-2-.35-1.21a7.63,7.63,0,0,1-.81,2.51c-0.52,1.18-1,2.25-.63,1.82a15.1,15.1,0,0,1-1.94,2.84c0.22,0.61-.94,2.11-1.73,4-2,3-.86.57-2.69,4.06C596.35,367.38,597.94,364.27,597.94,364.27Zm-66.38,64.22h0l1.72-.9Zm-7.08,3.46c0.88-.39,2-0.86,3.12-1.41,0.28,0,.08.21-0.65,0.52A16.77,16.77,0,0,0,524.47,431.95Zm15.77-6a6.7,6.7,0,0,1-1.65.86l1.9-1.13,0.11-.1A1.78,1.78,0,0,1,540.25,425.92Z" transform="translate(-243.2 -67.93)"/><path class="cls-1" d="M542,424.48l0.43-.29c-0.23.12-.45,0.22-0.68,0.33l-0.34.3Z" transform="translate(-243.2 -67.93)"/><path class="cls-1" d="M553.14,145.75l-0.13-.1a3.18,3.18,0,0,1,.26.24Z" transform="translate(-243.2 -67.93)"/><polygon class="cls-1" points="174.99 374.29 174.98 374.36 175.67 374.45 174.99 374.29"/><path class="cls-1" d="M584.13,176.28a3,3,0,0,0,.3.49A4,4,0,0,0,584.13,176.28Z" transform="translate(-243.2 -67.93)"/><path class="cls-1" d="M595.09,191.52l1.35,2.29C595.86,192.81,595.44,192.09,595.09,191.52Z" transform="translate(-243.2 -67.93)"/><path class="cls-1" d="M602.24,204a0.72,0.72,0,0,0,.24.2v0Z" transform="translate(-243.2 -67.93)"/><path class="cls-1" d="M407.16,122.8l-0.53.16C405.4,123.4,406.24,123.11,407.16,122.8Z" transform="translate(-243.2 -67.93)"/><path class="cls-1" d="M474.61,116.12c-0.73,0-1.44-.08-2.19-0.15A5.43,5.43,0,0,0,474.61,116.12Z" transform="translate(-243.2 -67.93)"/><path class="cls-1" d="M342.21,160.93a0,0,0,0,0,0,0l-0.34.32Z" transform="translate(-243.2 -67.93)"/><path class="cls-1" d="M469.25,115.73c1.21,0.15,2.22.21,3.17,0.25C471.42,115.88,470.25,115.76,469.25,115.73Z" transform="translate(-243.2 -67.93)"/><path class="cls-1" d="M620.19,263.52l0.08,0.69s0,0,.05.08Z" transform="translate(-243.2 -67.93)"/><path class="cls-1" d="M620.32,264.29l0.09,0.77A4.52,4.52,0,0,0,620.32,264.29Z" transform="translate(-243.2 -67.93)"/><path class="cls-1" d="M620.61,266.67l-0.19-1.61A9.77,9.77,0,0,0,620.61,266.67Z" transform="translate(-243.2 -67.93)"/><path class="cls-1" d="M617.19,244.68l-0.15-.19A0.3,0.3,0,0,0,617.19,244.68Z" transform="translate(-243.2 -67.93)"/><path class="cls-1" d="M615.83,239c0.36,1.34.59,3.43,1.1,5.29l0.12,0.16C616.68,243.64,616.36,240.26,615.83,239Z" transform="translate(-243.2 -67.93)"/><path class="cls-1" d="M609.15,215.65s0.13,0.28.29,0.71l0.59,1.58,0.86,2.29c-0.21-.84-0.49-1.94.35,0.13C609.27,214.48,611.52,221.62,609.15,215.65Z" transform="translate(-243.2 -67.93)"/><path class="cls-1" d="M602.7,201.89c1.25,2.32.13-.1,0.24,0C602.07,200.46,601.84,200.13,602.7,201.89Z" transform="translate(-243.2 -67.93)"/><path class="cls-1" d="M523.61,128.46l0.35-.12C522.09,127.53,523.9,128.42,523.61,128.46Z" transform="translate(-243.2 -67.93)"/><path class="cls-1" d="M503.57,122.36l0.92,0.34c0.46,0.17.91,0.38,0.91,0.38l1,0.08-1.38-.43C504.28,122.53,503.57,122.36,503.57,122.36Z" transform="translate(-243.2 -67.93)"/><polygon class="cls-1" points="248.86 49.55 249.73 49.71 246.4 49.04 248.86 49.55"/><path class="cls-1" d="M325.86,174.75l0.31-.14,0.32-.13C327.35,173.41,327.26,172.95,325.86,174.75Z" transform="translate(-243.2 -67.93)"/><path class="cls-1" d="M291.8,246.07a16.07,16.07,0,0,0-1,4.39C291.17,248.69,291.6,247,291.8,246.07Z" transform="translate(-243.2 -67.93)"/><path class="cls-1" d="M397.31,438.66l-1.53-.49,1.43,0.51c0.35,0.13.72,0.25,1,.33l0.45,0.14-0.67-.24C397.63,438.81,397.31,438.66,397.31,438.66Z" transform="translate(-243.2 -67.93)"/><path class="cls-2" d="M392.53,325.3a30.89,30.89,0,0,0,3.71-.05c6.69-.59,27.15-1.56,31.88,7.89,2.49,5,1.37,10.74-.66,15.63a29,29,0,0,1-18,16.47c-5.19,1.63-10.47,1.73-11.7-3.85a9.54,9.54,0,0,1,6-10.81c5.47-2.08,11.38-3.58,8-6.44-4.72-4-24,2.33-28.38-3.67C379.37,334.82,384.16,325,392.53,325.3Z" transform="translate(-243.2 -67.93)"/><path class="cls-2" d="M437.51,358.36a30.89,30.89,0,0,0,3.43-1.42c6-3,24.64-11.52,32.53-4.51,4.16,3.7,5.26,9.47,5.19,14.76a29,29,0,0,1-10.58,22c-4.22,3.44-9.08,5.49-12.29.77a9.54,9.54,0,0,1,1.6-12.29c4.3-4,9.24-7.55,5-9-5.86-2-21.47,11.09-27.72,7.13C428.82,372.08,429.63,361.21,437.51,358.36Z" transform="translate(-243.2 -67.93)"/><path class="cls-2" d="M352.57,320.06c0.6-1.08,1.19-2.17,1.71-3.3,2.79-6.09,11.79-24.48,19.45-25.77,4-.68,6.84,2.06,8.7,5.35,3,5.28,3.42,13,1.09,20.92-1.49,5.09-3.9,9.78-7.69,9.17-3.1-.5-4.49-4.28-3.41-8.64,1.35-5.47,3.25-11.15,0-9-4.51,2.95-9.9,22-15.38,24C351.91,334.6,348.5,327.38,352.57,320.06Z" transform="translate(-243.2 -67.93)"/><path class="cls-2" d="M391.92,312.21a30.89,30.89,0,0,0-.18-3.71c-0.83-6.66-2.54-27.08,6.73-32.14,4.89-2.67,10.69-1.76,15.65.1a29,29,0,0,1,17.11,17.37c1.82,5.13,2.1,10.4-3.42,11.83a9.54,9.54,0,0,1-11-5.65c-2.28-5.39-4-11.24-6.73-7.77-3.83,4.86,3.2,23.95-2.64,28.5C401.9,325,391.95,320.58,391.92,312.21Z" transform="translate(-243.2 -67.93)"/><path class="cls-2" d="M484.65,374.28a26.51,26.51,0,0,0-.19-3.29c-0.79-5.92-2.45-24,6.05-28.6,4.49-2.41,9.82-1.64,14.39,0a26.09,26.09,0,0,1,15.81,15.32c1.69,4.55,2,9.23-3.1,10.53a8.83,8.83,0,0,1-10.17-4.95c-2.12-4.77-3.72-10-6.22-6.86-3.5,4.34,3,21.25-2.31,25.33C493.89,385.6,484.71,381.72,484.65,374.28Z" transform="translate(-243.2 -67.93)"/><path class="cls-2" d="M586.18,322.2c-1.81-.23-3.62-0.44-5.44-0.54-9.85-.52-39.92-2.85-45.9-12.24-3.16-5-1-10,2.51-14.19,5.56-6.66,15.83-11.18,28-12.23,7.76-.67,15.5.07,16.75,5.36,1,4.33-3.37,8.1-9.92,8.94-8.21,1-17,1.48-12.36,4.63,6.51,4.4,35.45,1.66,41.2,7.83C606.39,315.56,598.41,323.77,586.18,322.2Z" transform="translate(-243.2 -67.93)"/><path class="cls-2" d="M460.35,405.13a30.89,30.89,0,0,0,2.82-2.41c4.77-4.73,19.89-18.55,29.56-14.3,5.1,2.24,7.92,7.39,9.48,12.45A29,29,0,0,1,498.91,425c-3,4.57-7,8-11.46,4.51a9.54,9.54,0,0,1-2.26-12.18c2.88-5.1,6.46-10,2-10.07-6.18-.06-17,17.16-24.18,15.31C456.31,420.86,453.74,410.27,460.35,405.13Z" transform="translate(-243.2 -67.93)"/><path class="cls-2" d="M512.1,393.75a30.89,30.89,0,0,0,1.73-3.29c2.68-6.16,11.59-24.61,22.14-24.25,5.57,0.19,10.1,3.92,13.42,8a29,29,0,0,1,5.9,23.66c-1,5.34-3.48,10-9,8.44a9.54,9.54,0,0,1-6.62-10.48c0.78-5.8,2.28-11.71-1.84-10.11C532.09,388,528.44,408,521.09,409,514.18,409.86,507.86,401,512.1,393.75Z" transform="translate(-243.2 -67.93)"/><path class="cls-2" d="M564.9,371a26.51,26.51,0,0,0-2.25-2.41c-4.39-4-17.25-16.93-13.62-25.87,1.92-4.72,6.51-7.54,11.06-9.21a26.09,26.09,0,0,1,22,1.68c4.21,2.41,7.42,5.83,4.35,10.08a8.83,8.83,0,0,1-11,2.69c-4.68-2.32-9.22-5.29-9.17-1.3,0.08,5.57,15.92,14.4,14.41,21C579.24,373.8,569.7,376.68,564.9,371Z" transform="translate(-243.2 -67.93)"/><path class="cls-2" d="M325.18,291.32a30.89,30.89,0,0,0,2.91,2.31c5.56,3.77,22,15.94,19.73,26.25-1.22,5.44-5.72,9.2-10.39,11.7A29,29,0,0,1,313.09,333c-5.05-2-9.21-5.27-6.64-10.37A9.54,9.54,0,0,1,318,318.06c5.56,1.84,11.08,4.41,10.27.06-1.13-6.08-20.12-13.38-19.69-20.77C309,290.39,318.86,285.82,325.18,291.32Z" transform="translate(-243.2 -67.93)"/><path class="cls-2" d="M346.32,339.9a30.89,30.89,0,0,0,3.56,1.06c6.56,1.44,26.38,6.63,28.06,17.05,0.89,5.5-1.9,10.66-5.3,14.72a29,29,0,0,1-22.08,10.35c-5.44,0-10.51-1.48-10-7.17a9.54,9.54,0,0,1,9-8.51c5.84-.35,11.93,0,9.56-3.75-3.3-5.23-23.65-5-26-12C330.92,345.05,338.41,337.14,346.32,339.9Z" transform="translate(-243.2 -67.93)"/><path class="cls-2" d="M369.77,389.82a26.51,26.51,0,0,0,1.94-2.67c3.12-5.08,13.29-20.18,22.76-18.35,5,1,8.65,4.94,11.17,9.08a26.09,26.09,0,0,1,2.58,21.87c-1.56,4.59-4.29,8.4-9.05,6.21a8.83,8.83,0,0,1-4.75-10.26c1.37-5,3.41-10.07-.49-9.24-5.45,1.15-11.06,18.4-17.79,18.18C369.79,404.43,365.12,395.63,369.77,389.82Z" transform="translate(-243.2 -67.93)"/><path class="cls-2" d="M411.92,417.7a30.89,30.89,0,0,0,.55-3.67c0.51-6.7,2.87-27,13-30.17,5.32-1.65,10.82.39,15.32,3.19a29,29,0,0,1,13.34,20.42c0.77,5.39,0,10.61-5.7,10.92a9.54,9.54,0,0,1-9.69-7.72c-1.17-5.73-1.69-11.81-5.06-8.94-4.71,4-1.6,24.11-8.22,27.41C419.17,432.23,410.29,425.91,411.92,417.7Z" transform="translate(-243.2 -67.93)"/><path class="cls-2" d="M447.7,334.58a30.89,30.89,0,0,0-2.12-3c-4.23-5.22-16.49-21.63-11.3-30.83,2.74-4.86,8.14-7.15,13.32-8.2a29,29,0,0,1,23.71,5.68c4.26,3.39,7.29,7.71,3.36,11.85a9.54,9.54,0,0,1-12.35,1c-4.79-3.37-9.33-7.43-9.82-3-0.68,6.15,15.39,18.62,12.84,25.57C462.95,340.16,452.15,341.67,447.7,334.58Z" transform="translate(-243.2 -67.93)"/><path class="cls-2" d="M525.4,346.57c-1.63-.81-3.28-1.61-5-2.3-9.14-3.73-36.76-15.82-39.33-26.65-1.36-5.72,2.4-9.8,7-12.58,7.44-4.46,18.62-5.35,30.42-2.36,7.55,1.92,14.62,5.17,14.05,10.57-0.46,4.42-5.85,6.54-12.31,5.18-8.1-1.72-16.56-4.2-13.19.31,4.7,6.3,32.93,13.22,36.34,20.94C546.67,347,536.44,352.07,525.4,346.57Z" transform="translate(-243.2 -67.93)"/><path class="cls-2" d="M523.06,241.81a29.1,29.1,0,0,0-3.71.05c-6.69.62-27.15,1.65-31.88-8.37-2.49-5.29-1.37-11.41.66-16.6a29.69,29.69,0,0,1,18-17.49c5.19-1.73,10.47-1.83,11.7,4.09a10.24,10.24,0,0,1-6,11.48c-5.47,2.21-11.38,3.8-8,6.84,4.72,4.25,24-2.48,28.38,3.89C536.22,231.71,531.43,242.1,523.06,241.81Z" transform="translate(-243.2 -67.93)"/><path class="cls-2" d="M478.09,206.71a29.92,29.92,0,0,0-3.43,1.51c-6,3.21-24.64,12.24-32.53,4.79-4.16-3.93-5.26-10.05-5.19-15.67A31.5,31.5,0,0,1,447.53,174c4.22-3.65,9.08-5.83,12.29-.81a10.58,10.58,0,0,1-1.6,13c-4.3,4.21-9.24,8-5,9.51,5.86,2.09,21.47-11.78,27.72-7.57C486.78,192.14,486,203.68,478.09,206.71Z" transform="translate(-243.2 -67.93)"/><path class="cls-2" d="M563,247.37c-0.6,1.15-1.19,2.31-1.71,3.5-2.79,6.47-11.79,26-19.45,27.37-4,.73-6.84-2.19-8.7-5.68-3-5.61-3.42-13.77-1.09-22.21,1.49-5.4,3.9-10.39,7.69-9.73,3.1,0.54,4.49,4.55,3.41,9.18-1.35,5.81-3.25,11.84,0,9.6,4.51-3.13,9.9-23.33,15.38-25.45C563.69,231.94,567.1,239.61,563,247.37Z" transform="translate(-243.2 -67.93)"/><path class="cls-2" d="M523.68,255.71a34.81,34.81,0,0,0,.18,3.94c0.83,7.08,2.54,28.75-6.73,34.13-4.89,2.84-10.69,1.87-15.65-.1a30,30,0,0,1-17.11-18.45c-1.82-5.45-2.1-11,3.42-12.56,4.52-1.24,9.21,1.44,11,6,2.28,5.72,4,11.94,6.73,8.25,3.83-5.16-3.2-25.43,2.64-30.26C513.69,242.11,523.65,246.82,523.68,255.71Z" transform="translate(-243.2 -67.93)"/><path class="cls-2" d="M430.95,189.8a29.87,29.87,0,0,0,.19,3.5c0.79,6.28,2.45,25.53-6.05,30.37-4.49,2.55-9.82,1.74-14.39,0a26.88,26.88,0,0,1-15.81-16.27c-1.69-4.83-2-9.8,3.1-11.18a8.69,8.69,0,0,1,10.17,5.26c2.12,5.07,3.72,10.58,6.22,7.28,3.5-4.61-3-22.57,2.31-26.9C421.71,177.79,430.89,181.9,430.95,189.8Z" transform="translate(-243.2 -67.93)"/><path class="cls-2" d="M329.41,245.11c1.81,0.25,3.62.47,5.44,0.57,9.85,0.55,39.92,3,45.9,13,3.16,5.26,1,10.66-2.51,15.07-5.56,7.07-15.83,11.87-28,13-7.76.71-15.5-.07-16.75-5.69-1-4.6,3.37-8.61,9.92-9.49,8.21-1.11,17-1.57,12.36-4.92-6.51-4.67-35.45-1.76-41.2-8.31C309.2,252.15,317.18,243.44,329.41,245.11Z" transform="translate(-243.2 -67.93)"/><path class="cls-2" d="M455.24,157a31.47,31.47,0,0,0-2.82,2.56c-4.77,5-19.89,19.69-29.56,15.18-5.1-2.38-7.92-7.84-9.48-13.22a32.38,32.38,0,0,1,3.31-25.65c3-4.85,7-8.51,11.46-4.79a10.56,10.56,0,0,1,2.26,12.94c-2.88,5.41-6.46,10.64-2,10.69,6.18,0.07,17-18.22,24.18-16.26C459.28,140.34,461.86,151.59,455.24,157Z" transform="translate(-243.2 -67.93)"/><path class="cls-2" d="M403.5,169.13a33.56,33.56,0,0,0-1.73,3.49c-2.68,6.54-11.59,26.13-22.14,25.75-5.57-.2-10.1-4.16-13.42-8.54a32.17,32.17,0,0,1-5.9-25.12c1-5.67,3.48-10.65,9-9,4.48,1.37,7.24,6.21,6.62,11.12-0.78,6.16-2.28,12.43,1.84,10.73,5.77-2.37,9.42-23.62,16.77-24.63C401.42,152,407.74,161.46,403.5,169.13Z" transform="translate(-243.2 -67.93)"/><path class="cls-2" d="M350.69,193.29a27.57,27.57,0,0,0,2.25,2.56c4.39,4.3,17.25,18,13.62,27.46-1.92,5-6.51,8-11.06,9.78a24.74,24.74,0,0,1-22-1.78c-4.21-2.56-7.42-6.19-4.35-10.7a8.51,8.51,0,0,1,11-2.85c4.68,2.46,9.22,5.61,9.17,1.38-0.08-5.92-15.92-15.29-14.41-22.26C336.36,190.32,345.89,187.25,350.69,193.29Z" transform="translate(-243.2 -67.93)"/><path class="cls-2" d="M590.42,277.89a31.27,31.27,0,0,0-2.91-2.45c-5.56-4-22-16.93-19.73-27.87,1.22-5.78,5.72-9.77,10.39-12.42a27.45,27.45,0,0,1,24.34-1.5c5.05,2.14,9.21,5.6,6.64,11a9.32,9.32,0,0,1-11.52,4.84c-5.56-2-11.08-4.68-10.27-.07,1.13,6.46,20.12,14.21,19.69,22.05C606.63,278.88,596.73,283.73,590.42,277.89Z" transform="translate(-243.2 -67.93)"/><path class="cls-2" d="M569.28,226.31a29.55,29.55,0,0,0-3.56-1.13c-6.56-1.53-26.38-7-28.06-18.11-0.89-5.84,1.9-11.32,5.3-15.63a28.31,28.31,0,0,1,22.08-11c5.44,0,10.51,1.57,10,7.61a9.81,9.81,0,0,1-9,9c-5.84.38-11.93,0-9.56,4,3.3,5.55,23.65,5.27,26,12.72C584.68,220.84,577.18,229.24,569.28,226.31Z" transform="translate(-243.2 -67.93)"/><path class="cls-2" d="M545.82,173.3a28.15,28.15,0,0,0-1.94,2.84c-3.12,5.4-13.29,21.43-22.76,19.48-5-1-8.65-5.24-11.17-9.64a29.19,29.19,0,0,1-2.58-23.22c1.56-4.88,4.29-8.92,9.05-6.59a9.57,9.57,0,0,1,4.75,10.89c-1.37,5.35-3.41,10.69.49,9.81,5.45-1.23,11.06-19.54,17.79-19.31C545.8,157.79,550.47,167.14,545.82,173.3Z" transform="translate(-243.2 -67.93)"/><path class="cls-2" d="M503.68,143.71a34.7,34.7,0,0,0-.55,3.9c-0.51,7.11-2.87,28.72-13,32-5.32,1.75-10.82-.41-15.32-3.39a30.93,30.93,0,0,1-13.34-21.68c-0.77-5.72,0-11.27,5.7-11.59,4.66-.26,8.76,3.34,9.69,8.2,1.17,6.09,1.69,12.54,5.06,9.5,4.71-4.25,1.6-25.6,8.22-29.1C496.43,128.28,505.31,135,503.68,143.71Z" transform="translate(-243.2 -67.93)"/><path class="cls-2" d="M465.9,233a32.92,32.92,0,0,0,2.12,3.24c4.23,5.54,16.49,23,11.3,32.73-2.74,5.16-8.14,7.59-13.32,8.71a27.7,27.7,0,0,1-23.71-6C438,268,435,263.41,438.93,259a9.13,9.13,0,0,1,12.35-1.1c4.79,3.57,9.33,7.88,9.82,3.22,0.68-6.53-15.39-19.77-12.84-27.15C450.65,227,461.44,225.43,465.9,233Z" transform="translate(-243.2 -67.93)"/><path class="cls-2" d="M390.19,219.23c1.63,0.86,3.28,1.71,5,2.44,9.14,4,36.76,16.8,39.33,28.3,1.36,6.07-2.4,10.4-7,13.36-7.44,4.74-18.62,5.68-30.42,2.5-7.55-2-14.62-5.48-14.05-11.23,0.46-4.7,5.85-6.95,12.31-5.5,8.1,1.82,16.56,4.46,13.19-.33-4.7-6.69-32.93-14-36.34-22.24C368.93,218.82,379.16,213.39,390.19,219.23Z" transform="translate(-243.2 -67.93)"/></svg>